<mxfile host="app.diagrams.net" modified="2024-01-08T14:42:38.798Z" agent="Mozilla/5.0 (Windows NT 10.0; Win64; x64) AppleWebKit/537.36 (KHTML, like Gecko) Chrome/120.0.0.0 Safari/537.36" etag="2-jXbCnDxmaG6tw2dCYm" version="22.1.16" type="github" pages="2">
  <diagram name="페이지-1" id="7tEdZy4TTa0kL3ofJj6Q">
    <mxGraphModel dx="1886" dy="972" grid="1" gridSize="10" guides="1" tooltips="1" connect="1" arrows="1" fold="1" page="1" pageScale="1" pageWidth="827" pageHeight="1169" math="0" shadow="0">
      <root>
        <mxCell id="0" />
        <mxCell id="1" parent="0" />
        <mxCell id="4N7OyaEM5LjGRHc0Y4h--5" value="" style="edgeStyle=orthogonalEdgeStyle;rounded=0;orthogonalLoop=1;jettySize=auto;html=1;entryX=0;entryY=0.5;entryDx=0;entryDy=0;noEdgeStyle=1;orthogonal=1;" parent="1" source="4N7OyaEM5LjGRHc0Y4h--3" target="4N7OyaEM5LjGRHc0Y4h--4" edge="1">
          <mxGeometry relative="1" as="geometry">
            <Array as="points">
              <mxPoint x="132" y="420" />
              <mxPoint x="208" y="260" />
            </Array>
          </mxGeometry>
        </mxCell>
        <mxCell id="4N7OyaEM5LjGRHc0Y4h--8" style="edgeStyle=orthogonalEdgeStyle;rounded=0;orthogonalLoop=1;jettySize=auto;html=1;noEdgeStyle=1;orthogonal=1;" parent="1" source="4N7OyaEM5LjGRHc0Y4h--3" target="4N7OyaEM5LjGRHc0Y4h--6" edge="1">
          <mxGeometry relative="1" as="geometry">
            <Array as="points">
              <mxPoint x="134" y="430" />
              <mxPoint x="208" y="350" />
            </Array>
          </mxGeometry>
        </mxCell>
        <mxCell id="4N7OyaEM5LjGRHc0Y4h--9" style="edgeStyle=orthogonalEdgeStyle;rounded=0;orthogonalLoop=1;jettySize=auto;html=1;entryX=0;entryY=0.5;entryDx=0;entryDy=0;noEdgeStyle=1;orthogonal=1;" parent="1" source="4N7OyaEM5LjGRHc0Y4h--3" target="4N7OyaEM5LjGRHc0Y4h--7" edge="1">
          <mxGeometry relative="1" as="geometry">
            <Array as="points">
              <mxPoint x="136" y="440" />
              <mxPoint x="208" y="440" />
            </Array>
          </mxGeometry>
        </mxCell>
        <mxCell id="4N7OyaEM5LjGRHc0Y4h--11" style="edgeStyle=orthogonalEdgeStyle;rounded=0;orthogonalLoop=1;jettySize=auto;html=1;entryX=0;entryY=0.5;entryDx=0;entryDy=0;noEdgeStyle=1;orthogonal=1;" parent="1" source="4N7OyaEM5LjGRHc0Y4h--3" target="4N7OyaEM5LjGRHc0Y4h--10" edge="1">
          <mxGeometry relative="1" as="geometry">
            <Array as="points">
              <mxPoint x="134" y="450" />
              <mxPoint x="208" y="530" />
            </Array>
          </mxGeometry>
        </mxCell>
        <mxCell id="4N7OyaEM5LjGRHc0Y4h--87" value="" style="edgeStyle=orthogonalEdgeStyle;rounded=0;orthogonalLoop=1;jettySize=auto;html=1;noEdgeStyle=1;orthogonal=1;" parent="1" source="4N7OyaEM5LjGRHc0Y4h--3" target="4N7OyaEM5LjGRHc0Y4h--86" edge="1">
          <mxGeometry relative="1" as="geometry">
            <Array as="points">
              <mxPoint x="132" y="460" />
              <mxPoint x="208" y="620" />
            </Array>
          </mxGeometry>
        </mxCell>
        <mxCell id="4N7OyaEM5LjGRHc0Y4h--3" value="child_process" style="rounded=0;whiteSpace=wrap;html=1;" parent="1" vertex="1">
          <mxGeometry y="410" width="120" height="60" as="geometry" />
        </mxCell>
        <mxCell id="4N7OyaEM5LjGRHc0Y4h--13" value="" style="edgeStyle=orthogonalEdgeStyle;rounded=0;orthogonalLoop=1;jettySize=auto;html=1;noEdgeStyle=1;orthogonal=1;" parent="1" source="4N7OyaEM5LjGRHc0Y4h--4" target="4N7OyaEM5LjGRHc0Y4h--12" edge="1">
          <mxGeometry relative="1" as="geometry">
            <Array as="points">
              <mxPoint x="352" y="243.33333333333334" />
              <mxPoint x="428" y="170" />
            </Array>
          </mxGeometry>
        </mxCell>
        <mxCell id="4N7OyaEM5LjGRHc0Y4h--45" value="" style="edgeStyle=orthogonalEdgeStyle;rounded=0;orthogonalLoop=1;jettySize=auto;html=1;noEdgeStyle=1;orthogonal=1;" parent="1" source="4N7OyaEM5LjGRHc0Y4h--4" target="4N7OyaEM5LjGRHc0Y4h--44" edge="1">
          <mxGeometry relative="1" as="geometry">
            <Array as="points">
              <mxPoint x="354" y="260" />
              <mxPoint x="428" y="260" />
            </Array>
          </mxGeometry>
        </mxCell>
        <mxCell id="4N7OyaEM5LjGRHc0Y4h--70" value="" style="edgeStyle=orthogonalEdgeStyle;rounded=0;orthogonalLoop=1;jettySize=auto;html=1;noEdgeStyle=1;orthogonal=1;" parent="1" source="4N7OyaEM5LjGRHc0Y4h--4" target="4N7OyaEM5LjGRHc0Y4h--69" edge="1">
          <mxGeometry relative="1" as="geometry">
            <Array as="points">
              <mxPoint x="352" y="276.6666666666667" />
              <mxPoint x="428" y="350" />
            </Array>
          </mxGeometry>
        </mxCell>
        <mxCell id="4N7OyaEM5LjGRHc0Y4h--4" value="spawn()" style="rounded=0;whiteSpace=wrap;html=1;" parent="1" vertex="1">
          <mxGeometry x="220" y="230" width="120" height="60" as="geometry" />
        </mxCell>
        <mxCell id="4N7OyaEM5LjGRHc0Y4h--93" value="" style="edgeStyle=orthogonalEdgeStyle;rounded=0;orthogonalLoop=1;jettySize=auto;html=1;noEdgeStyle=1;orthogonal=1;" parent="1" source="4N7OyaEM5LjGRHc0Y4h--6" target="4N7OyaEM5LjGRHc0Y4h--92" edge="1">
          <mxGeometry relative="1" as="geometry">
            <mxPoint x="330" y="345.04347826086973" as="sourcePoint" />
            <Array as="points">
              <mxPoint x="352" y="350" />
              <mxPoint x="428" y="440" />
            </Array>
          </mxGeometry>
        </mxCell>
        <mxCell id="4N7OyaEM5LjGRHc0Y4h--6" value="fork()" style="rounded=0;whiteSpace=wrap;html=1;" parent="1" vertex="1">
          <mxGeometry x="220" y="320" width="120" height="60" as="geometry" />
        </mxCell>
        <mxCell id="4N7OyaEM5LjGRHc0Y4h--54" value="" style="edgeStyle=orthogonalEdgeStyle;rounded=0;orthogonalLoop=1;jettySize=auto;html=1;noEdgeStyle=1;orthogonal=1;" parent="1" source="4N7OyaEM5LjGRHc0Y4h--7" target="4N7OyaEM5LjGRHc0Y4h--53" edge="1">
          <mxGeometry relative="1" as="geometry">
            <Array as="points">
              <mxPoint x="352" y="440" />
              <mxPoint x="428" y="530" />
            </Array>
          </mxGeometry>
        </mxCell>
        <mxCell id="4N7OyaEM5LjGRHc0Y4h--7" value="exec()" style="rounded=0;whiteSpace=wrap;html=1;" parent="1" vertex="1">
          <mxGeometry x="220" y="410" width="120" height="60" as="geometry" />
        </mxCell>
        <mxCell id="4N7OyaEM5LjGRHc0Y4h--84" value="" style="edgeStyle=orthogonalEdgeStyle;rounded=0;orthogonalLoop=1;jettySize=auto;html=1;noEdgeStyle=1;orthogonal=1;" parent="1" source="4N7OyaEM5LjGRHc0Y4h--10" target="4N7OyaEM5LjGRHc0Y4h--83" edge="1">
          <mxGeometry relative="1" as="geometry">
            <Array as="points">
              <mxPoint x="352" y="530" />
              <mxPoint x="428" y="620" />
            </Array>
          </mxGeometry>
        </mxCell>
        <mxCell id="4N7OyaEM5LjGRHc0Y4h--10" value="execFile()" style="rounded=0;whiteSpace=wrap;html=1;" parent="1" vertex="1">
          <mxGeometry x="220" y="500" width="120" height="60" as="geometry" />
        </mxCell>
        <mxCell id="4N7OyaEM5LjGRHc0Y4h--15" value="" style="edgeStyle=orthogonalEdgeStyle;rounded=0;orthogonalLoop=1;jettySize=auto;html=1;noEdgeStyle=1;orthogonal=1;" parent="1" source="4N7OyaEM5LjGRHc0Y4h--12" target="4N7OyaEM5LjGRHc0Y4h--14" edge="1">
          <mxGeometry relative="1" as="geometry">
            <Array as="points">
              <mxPoint x="572" y="151.25" />
              <mxPoint x="648" y="70" />
            </Array>
          </mxGeometry>
        </mxCell>
        <mxCell id="4N7OyaEM5LjGRHc0Y4h--19" style="edgeStyle=orthogonalEdgeStyle;rounded=0;orthogonalLoop=1;jettySize=auto;html=1;noEdgeStyle=1;orthogonal=1;" parent="1" source="4N7OyaEM5LjGRHc0Y4h--12" target="4N7OyaEM5LjGRHc0Y4h--16" edge="1">
          <mxGeometry relative="1" as="geometry">
            <Array as="points">
              <mxPoint x="574" y="163.75" />
              <mxPoint x="648" y="160" />
            </Array>
          </mxGeometry>
        </mxCell>
        <mxCell id="4N7OyaEM5LjGRHc0Y4h--20" style="edgeStyle=orthogonalEdgeStyle;rounded=0;orthogonalLoop=1;jettySize=auto;html=1;entryX=0;entryY=0.5;entryDx=0;entryDy=0;noEdgeStyle=1;orthogonal=1;" parent="1" source="4N7OyaEM5LjGRHc0Y4h--12" target="4N7OyaEM5LjGRHc0Y4h--17" edge="1">
          <mxGeometry relative="1" as="geometry">
            <Array as="points">
              <mxPoint x="574" y="176.25" />
              <mxPoint x="648" y="250" />
            </Array>
          </mxGeometry>
        </mxCell>
        <mxCell id="4N7OyaEM5LjGRHc0Y4h--21" style="edgeStyle=orthogonalEdgeStyle;rounded=0;orthogonalLoop=1;jettySize=auto;html=1;entryX=0;entryY=0.5;entryDx=0;entryDy=0;noEdgeStyle=1;orthogonal=1;" parent="1" source="4N7OyaEM5LjGRHc0Y4h--12" target="4N7OyaEM5LjGRHc0Y4h--18" edge="1">
          <mxGeometry relative="1" as="geometry">
            <Array as="points">
              <mxPoint x="572" y="188.75" />
              <mxPoint x="648" y="340" />
            </Array>
          </mxGeometry>
        </mxCell>
        <mxCell id="4N7OyaEM5LjGRHc0Y4h--12" value="이벤트 에미터를 통한 통신이 가능한 방식" style="rounded=0;whiteSpace=wrap;html=1;" parent="1" vertex="1">
          <mxGeometry x="440" y="140" width="120" height="60" as="geometry" />
        </mxCell>
        <mxCell id="4N7OyaEM5LjGRHc0Y4h--23" value="" style="edgeStyle=orthogonalEdgeStyle;rounded=0;orthogonalLoop=1;jettySize=auto;html=1;noEdgeStyle=1;orthogonal=1;" parent="1" source="4N7OyaEM5LjGRHc0Y4h--14" target="4N7OyaEM5LjGRHc0Y4h--22" edge="1">
          <mxGeometry relative="1" as="geometry">
            <Array as="points">
              <mxPoint x="1082" y="70" />
              <mxPoint x="1158" y="70" />
            </Array>
          </mxGeometry>
        </mxCell>
        <mxCell id="4N7OyaEM5LjGRHc0Y4h--14" value="disconnect" style="rounded=0;whiteSpace=wrap;html=1;" parent="1" vertex="1">
          <mxGeometry x="805" y="40" width="120" height="60" as="geometry" />
        </mxCell>
        <mxCell id="4N7OyaEM5LjGRHc0Y4h--25" value="" style="edgeStyle=orthogonalEdgeStyle;rounded=0;orthogonalLoop=1;jettySize=auto;html=1;noEdgeStyle=1;orthogonal=1;" parent="1" source="4N7OyaEM5LjGRHc0Y4h--16" target="4N7OyaEM5LjGRHc0Y4h--24" edge="1">
          <mxGeometry relative="1" as="geometry">
            <Array as="points">
              <mxPoint x="1082" y="160" />
              <mxPoint x="1158" y="160" />
            </Array>
          </mxGeometry>
        </mxCell>
        <mxCell id="4N7OyaEM5LjGRHc0Y4h--16" value="error" style="rounded=0;whiteSpace=wrap;html=1;" parent="1" vertex="1">
          <mxGeometry x="805" y="130" width="120" height="60" as="geometry" />
        </mxCell>
        <mxCell id="4N7OyaEM5LjGRHc0Y4h--27" value="" style="edgeStyle=orthogonalEdgeStyle;rounded=0;orthogonalLoop=1;jettySize=auto;html=1;noEdgeStyle=1;orthogonal=1;" parent="1" source="4N7OyaEM5LjGRHc0Y4h--17" target="4N7OyaEM5LjGRHc0Y4h--26" edge="1">
          <mxGeometry relative="1" as="geometry">
            <Array as="points">
              <mxPoint x="1082" y="250" />
              <mxPoint x="1158" y="250" />
            </Array>
          </mxGeometry>
        </mxCell>
        <mxCell id="4N7OyaEM5LjGRHc0Y4h--17" value="close" style="rounded=0;whiteSpace=wrap;html=1;" parent="1" vertex="1">
          <mxGeometry x="805" y="220" width="120" height="60" as="geometry" />
        </mxCell>
        <mxCell id="4N7OyaEM5LjGRHc0Y4h--29" value="" style="edgeStyle=orthogonalEdgeStyle;rounded=0;orthogonalLoop=1;jettySize=auto;html=1;noEdgeStyle=1;orthogonal=1;" parent="1" source="4N7OyaEM5LjGRHc0Y4h--18" target="4N7OyaEM5LjGRHc0Y4h--28" edge="1">
          <mxGeometry relative="1" as="geometry">
            <Array as="points">
              <mxPoint x="1082" y="340" />
              <mxPoint x="1158" y="340" />
            </Array>
          </mxGeometry>
        </mxCell>
        <mxCell id="4N7OyaEM5LjGRHc0Y4h--18" value="message" style="rounded=0;whiteSpace=wrap;html=1;" parent="1" vertex="1">
          <mxGeometry x="805" y="310" width="120" height="60" as="geometry" />
        </mxCell>
        <mxCell id="4N7OyaEM5LjGRHc0Y4h--22" value="child.disconnect 호출 시 수행됨" style="rounded=0;whiteSpace=wrap;html=1;" parent="1" vertex="1">
          <mxGeometry x="1345" y="40" width="120" height="60" as="geometry" />
        </mxCell>
        <mxCell id="4N7OyaEM5LjGRHc0Y4h--51" style="edgeStyle=orthogonalEdgeStyle;rounded=0;orthogonalLoop=1;jettySize=auto;html=1;noEdgeStyle=1;orthogonal=1;" parent="1" source="4N7OyaEM5LjGRHc0Y4h--24" target="4N7OyaEM5LjGRHc0Y4h--41" edge="1">
          <mxGeometry relative="1" as="geometry">
            <Array as="points">
              <mxPoint x="1652" y="160" />
              <mxPoint x="1728" y="50" />
            </Array>
          </mxGeometry>
        </mxCell>
        <mxCell id="4N7OyaEM5LjGRHc0Y4h--24" value="프로세스가 생성되지 못하거나 killed 된 경우" style="rounded=0;whiteSpace=wrap;html=1;" parent="1" vertex="1">
          <mxGeometry x="1345" y="130" width="120" height="60" as="geometry" />
        </mxCell>
        <mxCell id="4N7OyaEM5LjGRHc0Y4h--26" value="stream 종료시" style="rounded=0;whiteSpace=wrap;html=1;" parent="1" vertex="1">
          <mxGeometry x="1345" y="220" width="120" height="60" as="geometry" />
        </mxCell>
        <mxCell id="4N7OyaEM5LjGRHc0Y4h--60" value="" style="edgeStyle=orthogonalEdgeStyle;rounded=0;orthogonalLoop=1;jettySize=auto;html=1;noEdgeStyle=1;orthogonal=1;" parent="1" source="4N7OyaEM5LjGRHc0Y4h--28" target="4N7OyaEM5LjGRHc0Y4h--59" edge="1">
          <mxGeometry relative="1" as="geometry">
            <Array as="points">
              <mxPoint x="1652" y="323.3333333333333" />
              <mxPoint x="1728" y="160" />
            </Array>
          </mxGeometry>
        </mxCell>
        <mxCell id="4N7OyaEM5LjGRHc0Y4h--62" value="" style="edgeStyle=orthogonalEdgeStyle;rounded=0;orthogonalLoop=1;jettySize=auto;html=1;noEdgeStyle=1;orthogonal=1;" parent="1" source="4N7OyaEM5LjGRHc0Y4h--28" target="4N7OyaEM5LjGRHc0Y4h--61" edge="1">
          <mxGeometry relative="1" as="geometry">
            <Array as="points">
              <mxPoint x="1654" y="340" />
              <mxPoint x="1728" y="250" />
            </Array>
          </mxGeometry>
        </mxCell>
        <mxCell id="4N7OyaEM5LjGRHc0Y4h--64" value="" style="edgeStyle=orthogonalEdgeStyle;rounded=0;orthogonalLoop=1;jettySize=auto;html=1;noEdgeStyle=1;orthogonal=1;" parent="1" source="4N7OyaEM5LjGRHc0Y4h--28" target="4N7OyaEM5LjGRHc0Y4h--63" edge="1">
          <mxGeometry relative="1" as="geometry">
            <Array as="points">
              <mxPoint x="1652" y="356.6666666666667" />
              <mxPoint x="1728" y="340" />
            </Array>
          </mxGeometry>
        </mxCell>
        <mxCell id="4N7OyaEM5LjGRHc0Y4h--28" value="부모와 통신하기 위한 이벤" style="rounded=0;whiteSpace=wrap;html=1;" parent="1" vertex="1">
          <mxGeometry x="1345" y="310" width="120" height="60" as="geometry" />
        </mxCell>
        <mxCell id="4N7OyaEM5LjGRHc0Y4h--41" value="&lt;div style=&quot;color: rgb(238, 255, 255); background-color: rgb(38, 50, 56); font-family: Consolas, &amp;quot;Courier New&amp;quot;, monospace; font-weight: normal; font-size: 14px; line-height: 19px;&quot;&gt;&lt;div&gt;&lt;span style=&quot;color: #eeffff;&quot;&gt;child&lt;/span&gt;&lt;span style=&quot;color: #89ddff;&quot;&gt;.&lt;/span&gt;&lt;span style=&quot;color: #82aaff;&quot;&gt;on&lt;/span&gt;&lt;span style=&quot;color: #eeffff;&quot;&gt;(&lt;/span&gt;&lt;span style=&quot;color: #89ddff;&quot;&gt;&#39;&lt;/span&gt;&lt;span style=&quot;color: #c3e88d;&quot;&gt;exit&lt;/span&gt;&lt;span style=&quot;color: #89ddff;&quot;&gt;&#39;&lt;/span&gt;&lt;span style=&quot;color: #89ddff;&quot;&gt;,&lt;/span&gt;&lt;span style=&quot;color: #eeffff;&quot;&gt; &lt;/span&gt;&lt;span style=&quot;color: #c792ea;&quot;&gt;function&lt;/span&gt;&lt;span style=&quot;color: #eeffff;&quot;&gt; &lt;/span&gt;&lt;span style=&quot;color: #89ddff;&quot;&gt;(&lt;/span&gt;&lt;span style=&quot;color: #eeffff;font-style: italic;&quot;&gt;code&lt;/span&gt;&lt;span style=&quot;color: #89ddff;&quot;&gt;,&lt;/span&gt;&lt;span style=&quot;color: #eeffff;&quot;&gt; &lt;/span&gt;&lt;span style=&quot;color: #eeffff;font-style: italic;&quot;&gt;signal&lt;/span&gt;&lt;span style=&quot;color: #89ddff;&quot;&gt;)&lt;/span&gt;&lt;span style=&quot;color: #eeffff;&quot;&gt; &lt;/span&gt;&lt;span style=&quot;color: #89ddff;&quot;&gt;{&lt;/span&gt;&lt;/div&gt;&lt;div&gt;&lt;span style=&quot;color: #f07178;&quot;&gt;&amp;nbsp; &lt;/span&gt;&lt;span style=&quot;color: #eeffff;&quot;&gt;console&lt;/span&gt;&lt;span style=&quot;color: #89ddff;&quot;&gt;.&lt;/span&gt;&lt;span style=&quot;color: #82aaff;&quot;&gt;log&lt;/span&gt;&lt;span style=&quot;color: #f07178;&quot;&gt;(&lt;/span&gt;&lt;span style=&quot;color: #89ddff;&quot;&gt;&#39;&lt;/span&gt;&lt;span style=&quot;color: #c3e88d;&quot;&gt;child process exited with &lt;/span&gt;&lt;span style=&quot;color: #89ddff;&quot;&gt;&#39;&lt;/span&gt;&lt;span style=&quot;color: #f07178;&quot;&gt; &lt;/span&gt;&lt;span style=&quot;color: #89ddff;&quot;&gt;+&lt;/span&gt;&lt;/div&gt;&lt;div&gt;&lt;span style=&quot;color: #f07178;&quot;&gt;&amp;nbsp; &amp;nbsp; &amp;nbsp; &amp;nbsp; &amp;nbsp; &amp;nbsp; &amp;nbsp; &lt;/span&gt;&lt;span style=&quot;color: #89ddff;&quot;&gt;`&lt;/span&gt;&lt;span style=&quot;color: #c3e88d;&quot;&gt;code &lt;/span&gt;&lt;span style=&quot;color: #89ddff;&quot;&gt;${&lt;/span&gt;&lt;span style=&quot;color: #eeffff;&quot;&gt;code&lt;/span&gt;&lt;span style=&quot;color: #89ddff;&quot;&gt;}&lt;/span&gt;&lt;span style=&quot;color: #c3e88d;&quot;&gt; and signal &lt;/span&gt;&lt;span style=&quot;color: #89ddff;&quot;&gt;${&lt;/span&gt;&lt;span style=&quot;color: #eeffff;&quot;&gt;signal&lt;/span&gt;&lt;span style=&quot;color: #89ddff;&quot;&gt;}&lt;/span&gt;&lt;span style=&quot;color: #89ddff;&quot;&gt;`&lt;/span&gt;&lt;span style=&quot;color: #f07178;&quot;&gt;)&lt;/span&gt;&lt;span style=&quot;color: #89ddff;&quot;&gt;;&lt;/span&gt;&lt;/div&gt;&lt;div&gt;&lt;span style=&quot;color: #89ddff;&quot;&gt;}&lt;/span&gt;&lt;span style=&quot;color: #eeffff;&quot;&gt;)&lt;/span&gt;&lt;span style=&quot;color: #89ddff;&quot;&gt;;&lt;/span&gt;&lt;/div&gt;&lt;/div&gt;" style="text;whiteSpace=wrap;html=1;" parent="1" vertex="1">
          <mxGeometry x="1740" width="430" height="100" as="geometry" />
        </mxCell>
        <mxCell id="4N7OyaEM5LjGRHc0Y4h--42" value="&lt;div style=&quot;color: rgb(238, 255, 255); background-color: rgb(38, 50, 56); font-family: Consolas, &amp;quot;Courier New&amp;quot;, monospace; font-weight: normal; font-size: 14px; line-height: 19px;&quot;&gt;&lt;div&gt;&lt;span style=&quot;color: #eeffff;&quot;&gt;child&lt;/span&gt;&lt;span style=&quot;color: #89ddff;&quot;&gt;.&lt;/span&gt;&lt;span style=&quot;color: #eeffff;&quot;&gt;stdout&lt;/span&gt;&lt;span style=&quot;color: #89ddff;&quot;&gt;.&lt;/span&gt;&lt;span style=&quot;color: #82aaff;&quot;&gt;on&lt;/span&gt;&lt;span style=&quot;color: #eeffff;&quot;&gt;(&lt;/span&gt;&lt;span style=&quot;color: #89ddff;&quot;&gt;&#39;&lt;/span&gt;&lt;span style=&quot;color: #c3e88d;&quot;&gt;data&lt;/span&gt;&lt;span style=&quot;color: #89ddff;&quot;&gt;&#39;&lt;/span&gt;&lt;span style=&quot;color: #89ddff;&quot;&gt;,&lt;/span&gt;&lt;span style=&quot;color: #eeffff;&quot;&gt; &lt;/span&gt;&lt;span style=&quot;color: #89ddff;&quot;&gt;(&lt;/span&gt;&lt;span style=&quot;color: #eeffff;font-style: italic;&quot;&gt;data&lt;/span&gt;&lt;span style=&quot;color: #89ddff;&quot;&gt;)&lt;/span&gt;&lt;span style=&quot;color: #eeffff;&quot;&gt; &lt;/span&gt;&lt;span style=&quot;color: #c792ea;&quot;&gt;=&amp;gt;&lt;/span&gt;&lt;span style=&quot;color: #eeffff;&quot;&gt; &lt;/span&gt;&lt;span style=&quot;color: #89ddff;&quot;&gt;{&lt;/span&gt;&lt;/div&gt;&lt;div&gt;&lt;span style=&quot;color: #f07178;&quot;&gt;&amp;nbsp; &lt;/span&gt;&lt;span style=&quot;color: #eeffff;&quot;&gt;console&lt;/span&gt;&lt;span style=&quot;color: #89ddff;&quot;&gt;.&lt;/span&gt;&lt;span style=&quot;color: #82aaff;&quot;&gt;log&lt;/span&gt;&lt;span style=&quot;color: #f07178;&quot;&gt;(&lt;/span&gt;&lt;span style=&quot;color: #89ddff;&quot;&gt;`&lt;/span&gt;&lt;span style=&quot;color: #c3e88d;&quot;&gt;child stdout:&lt;/span&gt;&lt;span style=&quot;color: #eeffff;&quot;&gt;\n&lt;/span&gt;&lt;span style=&quot;color: #89ddff;&quot;&gt;${&lt;/span&gt;&lt;span style=&quot;color: #eeffff;font-style: italic;&quot;&gt;data&lt;/span&gt;&lt;span style=&quot;color: #89ddff;&quot;&gt;}&lt;/span&gt;&lt;span style=&quot;color: #89ddff;&quot;&gt;`&lt;/span&gt;&lt;span style=&quot;color: #f07178;&quot;&gt;)&lt;/span&gt;&lt;span style=&quot;color: #89ddff;&quot;&gt;;&lt;/span&gt;&lt;/div&gt;&lt;div&gt;&lt;span style=&quot;color: #89ddff;&quot;&gt;}&lt;/span&gt;&lt;span style=&quot;color: #eeffff;&quot;&gt;)&lt;/span&gt;&lt;span style=&quot;color: #89ddff;&quot;&gt;;&lt;/span&gt;&lt;/div&gt;&lt;br&gt;&lt;div&gt;&lt;span style=&quot;color: #eeffff;&quot;&gt;child&lt;/span&gt;&lt;span style=&quot;color: #89ddff;&quot;&gt;.&lt;/span&gt;&lt;span style=&quot;color: #eeffff;&quot;&gt;stderr&lt;/span&gt;&lt;span style=&quot;color: #89ddff;&quot;&gt;.&lt;/span&gt;&lt;span style=&quot;color: #82aaff;&quot;&gt;on&lt;/span&gt;&lt;span style=&quot;color: #eeffff;&quot;&gt;(&lt;/span&gt;&lt;span style=&quot;color: #89ddff;&quot;&gt;&#39;&lt;/span&gt;&lt;span style=&quot;color: #c3e88d;&quot;&gt;data&lt;/span&gt;&lt;span style=&quot;color: #89ddff;&quot;&gt;&#39;&lt;/span&gt;&lt;span style=&quot;color: #89ddff;&quot;&gt;,&lt;/span&gt;&lt;span style=&quot;color: #eeffff;&quot;&gt; &lt;/span&gt;&lt;span style=&quot;color: #89ddff;&quot;&gt;(&lt;/span&gt;&lt;span style=&quot;color: #eeffff;font-style: italic;&quot;&gt;data&lt;/span&gt;&lt;span style=&quot;color: #89ddff;&quot;&gt;)&lt;/span&gt;&lt;span style=&quot;color: #eeffff;&quot;&gt; &lt;/span&gt;&lt;span style=&quot;color: #c792ea;&quot;&gt;=&amp;gt;&lt;/span&gt;&lt;span style=&quot;color: #eeffff;&quot;&gt; &lt;/span&gt;&lt;span style=&quot;color: #89ddff;&quot;&gt;{&lt;/span&gt;&lt;/div&gt;&lt;div&gt;&lt;span style=&quot;color: #f07178;&quot;&gt;&amp;nbsp; &lt;/span&gt;&lt;span style=&quot;color: #eeffff;&quot;&gt;console&lt;/span&gt;&lt;span style=&quot;color: #89ddff;&quot;&gt;.&lt;/span&gt;&lt;span style=&quot;color: #82aaff;&quot;&gt;error&lt;/span&gt;&lt;span style=&quot;color: #f07178;&quot;&gt;(&lt;/span&gt;&lt;span style=&quot;color: #89ddff;&quot;&gt;`&lt;/span&gt;&lt;span style=&quot;color: #c3e88d;&quot;&gt;child stderr:&lt;/span&gt;&lt;span style=&quot;color: #eeffff;&quot;&gt;\n&lt;/span&gt;&lt;span style=&quot;color: #89ddff;&quot;&gt;${&lt;/span&gt;&lt;span style=&quot;color: #eeffff;font-style: italic;&quot;&gt;data&lt;/span&gt;&lt;span style=&quot;color: #89ddff;&quot;&gt;}&lt;/span&gt;&lt;span style=&quot;color: #89ddff;&quot;&gt;`&lt;/span&gt;&lt;span style=&quot;color: #f07178;&quot;&gt;)&lt;/span&gt;&lt;span style=&quot;color: #89ddff;&quot;&gt;;&lt;/span&gt;&lt;/div&gt;&lt;div&gt;&lt;span style=&quot;color: #89ddff;&quot;&gt;}&lt;/span&gt;&lt;span style=&quot;color: #eeffff;&quot;&gt;)&lt;/span&gt;&lt;span style=&quot;color: #89ddff;&quot;&gt;;&lt;/span&gt;&lt;/div&gt;&lt;/div&gt;" style="text;whiteSpace=wrap;html=1;" parent="1" vertex="1">
          <mxGeometry x="2270" y="285" width="360" height="160" as="geometry" />
        </mxCell>
        <mxCell id="4N7OyaEM5LjGRHc0Y4h--43" value="&lt;div style=&quot;color: rgb(238, 255, 255); background-color: rgb(38, 50, 56); font-family: Consolas, &amp;quot;Courier New&amp;quot;, monospace; font-weight: normal; font-size: 14px; line-height: 19px;&quot;&gt;&lt;div&gt;&lt;span style=&quot;color: #c792ea;&quot;&gt;const&lt;/span&gt;&lt;span style=&quot;color: #eeffff;&quot;&gt; &lt;/span&gt;&lt;span style=&quot;color: #eeffff;&quot;&gt;child&lt;/span&gt;&lt;span style=&quot;color: #eeffff;&quot;&gt; &lt;/span&gt;&lt;span style=&quot;color: #89ddff;&quot;&gt;=&lt;/span&gt;&lt;span style=&quot;color: #eeffff;&quot;&gt; &lt;/span&gt;&lt;span style=&quot;color: #82aaff;&quot;&gt;spawn&lt;/span&gt;&lt;span style=&quot;color: #eeffff;&quot;&gt;(&lt;/span&gt;&lt;span style=&quot;color: #89ddff;&quot;&gt;&#39;&lt;/span&gt;&lt;span style=&quot;color: #c3e88d;&quot;&gt;find&lt;/span&gt;&lt;span style=&quot;color: #89ddff;&quot;&gt;&#39;&lt;/span&gt;&lt;span style=&quot;color: #89ddff;&quot;&gt;,&lt;/span&gt;&lt;span style=&quot;color: #eeffff;&quot;&gt; [&lt;/span&gt;&lt;span style=&quot;color: #89ddff;&quot;&gt;&#39;&lt;/span&gt;&lt;span style=&quot;color: #c3e88d;&quot;&gt;.&lt;/span&gt;&lt;span style=&quot;color: #89ddff;&quot;&gt;&#39;&lt;/span&gt;&lt;span style=&quot;color: #89ddff;&quot;&gt;,&lt;/span&gt;&lt;span style=&quot;color: #eeffff;&quot;&gt; &lt;/span&gt;&lt;span style=&quot;color: #89ddff;&quot;&gt;&#39;&lt;/span&gt;&lt;span style=&quot;color: #c3e88d;&quot;&gt;-type&lt;/span&gt;&lt;span style=&quot;color: #89ddff;&quot;&gt;&#39;&lt;/span&gt;&lt;span style=&quot;color: #89ddff;&quot;&gt;,&lt;/span&gt;&lt;span style=&quot;color: #eeffff;&quot;&gt; &lt;/span&gt;&lt;span style=&quot;color: #89ddff;&quot;&gt;&#39;&lt;/span&gt;&lt;span style=&quot;color: #c3e88d;&quot;&gt;f&lt;/span&gt;&lt;span style=&quot;color: #89ddff;&quot;&gt;&#39;&lt;/span&gt;&lt;span style=&quot;color: #eeffff;&quot;&gt;])&lt;/span&gt;&lt;span style=&quot;color: #89ddff;&quot;&gt;;&lt;/span&gt;&lt;/div&gt;&lt;/div&gt;" style="text;whiteSpace=wrap;html=1;" parent="1" vertex="1">
          <mxGeometry x="660" y="400" width="410" height="40" as="geometry" />
        </mxCell>
        <mxCell id="4N7OyaEM5LjGRHc0Y4h--52" style="edgeStyle=orthogonalEdgeStyle;rounded=0;orthogonalLoop=1;jettySize=auto;html=1;noEdgeStyle=1;orthogonal=1;" parent="1" source="4N7OyaEM5LjGRHc0Y4h--44" target="4N7OyaEM5LjGRHc0Y4h--43" edge="1">
          <mxGeometry relative="1" as="geometry">
            <Array as="points">
              <mxPoint x="572" y="260" />
              <mxPoint x="648" y="420" />
            </Array>
          </mxGeometry>
        </mxCell>
        <mxCell id="4N7OyaEM5LjGRHc0Y4h--44" value="실행 명령어와 함께 생성가능" style="rounded=0;whiteSpace=wrap;html=1;" parent="1" vertex="1">
          <mxGeometry x="440" y="230" width="120" height="60" as="geometry" />
        </mxCell>
        <mxCell id="4N7OyaEM5LjGRHc0Y4h--49" value="&lt;div style=&quot;color: rgb(238, 255, 255); background-color: rgb(38, 50, 56); font-family: Consolas, &amp;quot;Courier New&amp;quot;, monospace; font-weight: normal; font-size: 14px; line-height: 19px;&quot;&gt;&lt;div&gt;&lt;span style=&quot;color: #c792ea;&quot;&gt;const&lt;/span&gt;&lt;span style=&quot;color: #eeffff;&quot;&gt; &lt;/span&gt;&lt;span style=&quot;color: #89ddff;&quot;&gt;{&lt;/span&gt;&lt;span style=&quot;color: #eeffff;&quot;&gt; &lt;/span&gt;&lt;span style=&quot;color: #82aaff;&quot;&gt;spawn&lt;/span&gt;&lt;span style=&quot;color: #eeffff;&quot;&gt; &lt;/span&gt;&lt;span style=&quot;color: #89ddff;&quot;&gt;}&lt;/span&gt;&lt;span style=&quot;color: #eeffff;&quot;&gt; &lt;/span&gt;&lt;span style=&quot;color: #89ddff;&quot;&gt;=&lt;/span&gt;&lt;span style=&quot;color: #eeffff;&quot;&gt; &lt;/span&gt;&lt;span style=&quot;color: #82aaff;&quot;&gt;require&lt;/span&gt;&lt;span style=&quot;color: #eeffff;&quot;&gt;(&lt;/span&gt;&lt;span style=&quot;color: #89ddff;&quot;&gt;&#39;&lt;/span&gt;&lt;span style=&quot;color: #c3e88d;&quot;&gt;child_process&lt;/span&gt;&lt;span style=&quot;color: #89ddff;&quot;&gt;&#39;&lt;/span&gt;&lt;span style=&quot;color: #eeffff;&quot;&gt;)&lt;/span&gt;&lt;span style=&quot;color: #89ddff;&quot;&gt;;&lt;/span&gt;&lt;/div&gt;&lt;br&gt;&lt;div&gt;&lt;span style=&quot;color: #c792ea;&quot;&gt;const&lt;/span&gt;&lt;span style=&quot;color: #eeffff;&quot;&gt; &lt;/span&gt;&lt;span style=&quot;color: #eeffff;&quot;&gt;child&lt;/span&gt;&lt;span style=&quot;color: #eeffff;&quot;&gt; &lt;/span&gt;&lt;span style=&quot;color: #89ddff;&quot;&gt;=&lt;/span&gt;&lt;span style=&quot;color: #eeffff;&quot;&gt; &lt;/span&gt;&lt;span style=&quot;color: #82aaff;&quot;&gt;spawn&lt;/span&gt;&lt;span style=&quot;color: #eeffff;&quot;&gt;(&lt;/span&gt;&lt;span style=&quot;color: #89ddff;&quot;&gt;&#39;&lt;/span&gt;&lt;span style=&quot;color: #c3e88d;&quot;&gt;wc&lt;/span&gt;&lt;span style=&quot;color: #89ddff;&quot;&gt;&#39;&lt;/span&gt;&lt;span style=&quot;color: #eeffff;&quot;&gt;)&lt;/span&gt;&lt;span style=&quot;color: #89ddff;&quot;&gt;;&lt;/span&gt;&lt;/div&gt;&lt;br&gt;&lt;div&gt;&lt;span style=&quot;color: #eeffff;&quot;&gt;process&lt;/span&gt;&lt;span style=&quot;color: #89ddff;&quot;&gt;.&lt;/span&gt;&lt;span style=&quot;color: #eeffff;&quot;&gt;stdin&lt;/span&gt;&lt;span style=&quot;color: #89ddff;&quot;&gt;.&lt;/span&gt;&lt;span style=&quot;color: #82aaff;&quot;&gt;pipe&lt;/span&gt;&lt;span style=&quot;color: #eeffff;&quot;&gt;(&lt;/span&gt;&lt;span style=&quot;color: #eeffff;&quot;&gt;child&lt;/span&gt;&lt;span style=&quot;color: #89ddff;&quot;&gt;.&lt;/span&gt;&lt;span style=&quot;color: #eeffff;&quot;&gt;stdin&lt;/span&gt;&lt;span style=&quot;color: #eeffff;&quot;&gt;)&lt;/span&gt;&lt;/div&gt;&lt;br&gt;&lt;div&gt;&lt;span style=&quot;color: #eeffff;&quot;&gt;child&lt;/span&gt;&lt;span style=&quot;color: #89ddff;&quot;&gt;.&lt;/span&gt;&lt;span style=&quot;color: #eeffff;&quot;&gt;stdout&lt;/span&gt;&lt;span style=&quot;color: #89ddff;&quot;&gt;.&lt;/span&gt;&lt;span style=&quot;color: #82aaff;&quot;&gt;on&lt;/span&gt;&lt;span style=&quot;color: #eeffff;&quot;&gt;(&lt;/span&gt;&lt;span style=&quot;color: #89ddff;&quot;&gt;&#39;&lt;/span&gt;&lt;span style=&quot;color: #c3e88d;&quot;&gt;data&lt;/span&gt;&lt;span style=&quot;color: #89ddff;&quot;&gt;&#39;&lt;/span&gt;&lt;span style=&quot;color: #89ddff;&quot;&gt;,&lt;/span&gt;&lt;span style=&quot;color: #eeffff;&quot;&gt; &lt;/span&gt;&lt;span style=&quot;color: #89ddff;&quot;&gt;(&lt;/span&gt;&lt;span style=&quot;color: #eeffff;font-style: italic;&quot;&gt;data&lt;/span&gt;&lt;span style=&quot;color: #89ddff;&quot;&gt;)&lt;/span&gt;&lt;span style=&quot;color: #eeffff;&quot;&gt; &lt;/span&gt;&lt;span style=&quot;color: #c792ea;&quot;&gt;=&amp;gt;&lt;/span&gt;&lt;span style=&quot;color: #eeffff;&quot;&gt; &lt;/span&gt;&lt;span style=&quot;color: #89ddff;&quot;&gt;{&lt;/span&gt;&lt;/div&gt;&lt;div&gt;&lt;span style=&quot;color: #f07178;&quot;&gt;&amp;nbsp; &lt;/span&gt;&lt;span style=&quot;color: #eeffff;&quot;&gt;console&lt;/span&gt;&lt;span style=&quot;color: #89ddff;&quot;&gt;.&lt;/span&gt;&lt;span style=&quot;color: #82aaff;&quot;&gt;log&lt;/span&gt;&lt;span style=&quot;color: #f07178;&quot;&gt;(&lt;/span&gt;&lt;span style=&quot;color: #89ddff;&quot;&gt;`&lt;/span&gt;&lt;span style=&quot;color: #c3e88d;&quot;&gt;child stdout:&lt;/span&gt;&lt;span style=&quot;color: #eeffff;&quot;&gt;\n&lt;/span&gt;&lt;span style=&quot;color: #89ddff;&quot;&gt;${&lt;/span&gt;&lt;span style=&quot;color: #eeffff;font-style: italic;&quot;&gt;data&lt;/span&gt;&lt;span style=&quot;color: #89ddff;&quot;&gt;}&lt;/span&gt;&lt;span style=&quot;color: #89ddff;&quot;&gt;`&lt;/span&gt;&lt;span style=&quot;color: #f07178;&quot;&gt;)&lt;/span&gt;&lt;span style=&quot;color: #89ddff;&quot;&gt;;&lt;/span&gt;&lt;/div&gt;&lt;div&gt;&lt;span style=&quot;color: #89ddff;&quot;&gt;}&lt;/span&gt;&lt;span style=&quot;color: #eeffff;&quot;&gt;)&lt;/span&gt;&lt;span style=&quot;color: #89ddff;&quot;&gt;;&lt;/span&gt;&lt;/div&gt;&lt;/div&gt;" style="text;whiteSpace=wrap;html=1;" parent="1" vertex="1">
          <mxGeometry x="2270" y="65" width="360" height="190" as="geometry" />
        </mxCell>
        <mxCell id="4N7OyaEM5LjGRHc0Y4h--56" value="" style="edgeStyle=orthogonalEdgeStyle;rounded=0;orthogonalLoop=1;jettySize=auto;html=1;noEdgeStyle=1;orthogonal=1;" parent="1" source="4N7OyaEM5LjGRHc0Y4h--53" target="4N7OyaEM5LjGRHc0Y4h--55" edge="1">
          <mxGeometry relative="1" as="geometry">
            <Array as="points">
              <mxPoint x="572" y="530" />
              <mxPoint x="648" y="810" />
            </Array>
          </mxGeometry>
        </mxCell>
        <mxCell id="4N7OyaEM5LjGRHc0Y4h--53" value="한번의 shell을 수행 하기 위한 메소드" style="rounded=0;whiteSpace=wrap;html=1;" parent="1" vertex="1">
          <mxGeometry x="440" y="500" width="120" height="60" as="geometry" />
        </mxCell>
        <mxCell id="4N7OyaEM5LjGRHc0Y4h--58" style="edgeStyle=orthogonalEdgeStyle;rounded=0;orthogonalLoop=1;jettySize=auto;html=1;noEdgeStyle=1;orthogonal=1;" parent="1" source="4N7OyaEM5LjGRHc0Y4h--55" target="4N7OyaEM5LjGRHc0Y4h--57" edge="1">
          <mxGeometry relative="1" as="geometry">
            <Array as="points">
              <mxPoint x="1082" y="810" />
              <mxPoint x="1158" y="810" />
            </Array>
          </mxGeometry>
        </mxCell>
        <mxCell id="4N7OyaEM5LjGRHc0Y4h--55" value="명령어에 의해 출력된 데이터는 버퍼에 저장하고 전체 값을 콜백 함수에 보냄" style="rounded=0;whiteSpace=wrap;html=1;" parent="1" vertex="1">
          <mxGeometry x="805" y="780" width="120" height="60" as="geometry" />
        </mxCell>
        <mxCell id="4N7OyaEM5LjGRHc0Y4h--57" value="&lt;div style=&quot;color: rgb(238, 255, 255); background-color: rgb(38, 50, 56); font-family: Consolas, &amp;quot;Courier New&amp;quot;, monospace; font-weight: normal; font-size: 14px; line-height: 19px;&quot;&gt;&lt;div&gt;&lt;span style=&quot;color: #c792ea;&quot;&gt;const&lt;/span&gt;&lt;span style=&quot;color: #eeffff;&quot;&gt; &lt;/span&gt;&lt;span style=&quot;color: #89ddff;&quot;&gt;{&lt;/span&gt;&lt;span style=&quot;color: #eeffff;&quot;&gt; &lt;/span&gt;&lt;span style=&quot;color: #82aaff;&quot;&gt;exec&lt;/span&gt;&lt;span style=&quot;color: #eeffff;&quot;&gt; &lt;/span&gt;&lt;span style=&quot;color: #89ddff;&quot;&gt;}&lt;/span&gt;&lt;span style=&quot;color: #eeffff;&quot;&gt; &lt;/span&gt;&lt;span style=&quot;color: #89ddff;&quot;&gt;=&lt;/span&gt;&lt;span style=&quot;color: #eeffff;&quot;&gt; &lt;/span&gt;&lt;span style=&quot;color: #82aaff;&quot;&gt;require&lt;/span&gt;&lt;span style=&quot;color: #eeffff;&quot;&gt;(&lt;/span&gt;&lt;span style=&quot;color: #89ddff;&quot;&gt;&#39;&lt;/span&gt;&lt;span style=&quot;color: #c3e88d;&quot;&gt;child_process&lt;/span&gt;&lt;span style=&quot;color: #89ddff;&quot;&gt;&#39;&lt;/span&gt;&lt;span style=&quot;color: #eeffff;&quot;&gt;)&lt;/span&gt;&lt;span style=&quot;color: #89ddff;&quot;&gt;;&lt;/span&gt;&lt;/div&gt;&lt;br&gt;&lt;div&gt;&lt;span style=&quot;color: #82aaff;&quot;&gt;exec&lt;/span&gt;&lt;span style=&quot;color: #eeffff;&quot;&gt;(&lt;/span&gt;&lt;span style=&quot;color: #89ddff;&quot;&gt;&#39;&lt;/span&gt;&lt;span style=&quot;color: #c3e88d;&quot;&gt;find . -type f | wc -l&lt;/span&gt;&lt;span style=&quot;color: #89ddff;&quot;&gt;&#39;&lt;/span&gt;&lt;span style=&quot;color: #89ddff;&quot;&gt;,&lt;/span&gt;&lt;span style=&quot;color: #eeffff;&quot;&gt; &lt;/span&gt;&lt;span style=&quot;color: #89ddff;&quot;&gt;(&lt;/span&gt;&lt;span style=&quot;color: #eeffff;font-style: italic;&quot;&gt;err&lt;/span&gt;&lt;span style=&quot;color: #89ddff;&quot;&gt;,&lt;/span&gt;&lt;span style=&quot;color: #eeffff;&quot;&gt; &lt;/span&gt;&lt;span style=&quot;color: #eeffff;font-style: italic;&quot;&gt;stdout&lt;/span&gt;&lt;span style=&quot;color: #89ddff;&quot;&gt;,&lt;/span&gt;&lt;span style=&quot;color: #eeffff;&quot;&gt; &lt;/span&gt;&lt;span style=&quot;color: #eeffff;font-style: italic;&quot;&gt;stderr&lt;/span&gt;&lt;span style=&quot;color: #89ddff;&quot;&gt;)&lt;/span&gt;&lt;span style=&quot;color: #eeffff;&quot;&gt; &lt;/span&gt;&lt;span style=&quot;color: #c792ea;&quot;&gt;=&amp;gt;&lt;/span&gt;&lt;span style=&quot;color: #eeffff;&quot;&gt; &lt;/span&gt;&lt;span style=&quot;color: #89ddff;&quot;&gt;{&lt;/span&gt;&lt;/div&gt;&lt;div&gt;&lt;span style=&quot;color: #f07178;&quot;&gt;&amp;nbsp; &lt;/span&gt;&lt;span style=&quot;color: #89ddff;font-style: italic;&quot;&gt;if&lt;/span&gt;&lt;span style=&quot;color: #f07178;&quot;&gt; (&lt;/span&gt;&lt;span style=&quot;color: #eeffff;font-style: italic;&quot;&gt;err&lt;/span&gt;&lt;span style=&quot;color: #f07178;&quot;&gt;) &lt;/span&gt;&lt;span style=&quot;color: #89ddff;&quot;&gt;{&lt;/span&gt;&lt;/div&gt;&lt;div&gt;&lt;span style=&quot;color: #f07178;&quot;&gt;&amp;nbsp; &amp;nbsp; &lt;/span&gt;&lt;span style=&quot;color: #eeffff;&quot;&gt;console&lt;/span&gt;&lt;span style=&quot;color: #89ddff;&quot;&gt;.&lt;/span&gt;&lt;span style=&quot;color: #82aaff;&quot;&gt;error&lt;/span&gt;&lt;span style=&quot;color: #f07178;&quot;&gt;(&lt;/span&gt;&lt;span style=&quot;color: #89ddff;&quot;&gt;`&lt;/span&gt;&lt;span style=&quot;color: #c3e88d;&quot;&gt;exec error: &lt;/span&gt;&lt;span style=&quot;color: #89ddff;&quot;&gt;${&lt;/span&gt;&lt;span style=&quot;color: #eeffff;font-style: italic;&quot;&gt;err&lt;/span&gt;&lt;span style=&quot;color: #89ddff;&quot;&gt;}&lt;/span&gt;&lt;span style=&quot;color: #89ddff;&quot;&gt;`&lt;/span&gt;&lt;span style=&quot;color: #f07178;&quot;&gt;)&lt;/span&gt;&lt;span style=&quot;color: #89ddff;&quot;&gt;;&lt;/span&gt;&lt;/div&gt;&lt;div&gt;&lt;span style=&quot;color: #f07178;&quot;&gt;&amp;nbsp; &amp;nbsp; &lt;/span&gt;&lt;span style=&quot;color: #89ddff;font-style: italic;&quot;&gt;return&lt;/span&gt;&lt;span style=&quot;color: #89ddff;&quot;&gt;;&lt;/span&gt;&lt;/div&gt;&lt;div&gt;&lt;span style=&quot;color: #f07178;&quot;&gt;&amp;nbsp; &lt;/span&gt;&lt;span style=&quot;color: #89ddff;&quot;&gt;}&lt;/span&gt;&lt;/div&gt;&lt;br&gt;&lt;div&gt;&lt;span style=&quot;color: #f07178;&quot;&gt;&amp;nbsp; &lt;/span&gt;&lt;span style=&quot;color: #eeffff;&quot;&gt;console&lt;/span&gt;&lt;span style=&quot;color: #89ddff;&quot;&gt;.&lt;/span&gt;&lt;span style=&quot;color: #82aaff;&quot;&gt;log&lt;/span&gt;&lt;span style=&quot;color: #f07178;&quot;&gt;(&lt;/span&gt;&lt;span style=&quot;color: #89ddff;&quot;&gt;`&lt;/span&gt;&lt;span style=&quot;color: #c3e88d;&quot;&gt;Number of files &lt;/span&gt;&lt;span style=&quot;color: #89ddff;&quot;&gt;${&lt;/span&gt;&lt;span style=&quot;color: #eeffff;font-style: italic;&quot;&gt;stdout&lt;/span&gt;&lt;span style=&quot;color: #89ddff;&quot;&gt;}&lt;/span&gt;&lt;span style=&quot;color: #89ddff;&quot;&gt;`&lt;/span&gt;&lt;span style=&quot;color: #f07178;&quot;&gt;)&lt;/span&gt;&lt;span style=&quot;color: #89ddff;&quot;&gt;;&lt;/span&gt;&lt;/div&gt;&lt;div&gt;&lt;span style=&quot;color: #89ddff;&quot;&gt;}&lt;/span&gt;&lt;span style=&quot;color: #eeffff;&quot;&gt;)&lt;/span&gt;&lt;span style=&quot;color: #89ddff;&quot;&gt;;&lt;/span&gt;&lt;/div&gt;&lt;/div&gt;" style="text;whiteSpace=wrap;html=1;" parent="1" vertex="1">
          <mxGeometry x="1170" y="705" width="470" height="210" as="geometry" />
        </mxCell>
        <mxCell id="4N7OyaEM5LjGRHc0Y4h--65" style="edgeStyle=orthogonalEdgeStyle;rounded=0;orthogonalLoop=1;jettySize=auto;html=1;noEdgeStyle=1;orthogonal=1;" parent="1" source="4N7OyaEM5LjGRHc0Y4h--59" target="4N7OyaEM5LjGRHc0Y4h--49" edge="1">
          <mxGeometry relative="1" as="geometry">
            <Array as="points">
              <mxPoint x="2182" y="160" />
              <mxPoint x="2258" y="160" />
            </Array>
          </mxGeometry>
        </mxCell>
        <mxCell id="4N7OyaEM5LjGRHc0Y4h--59" value="stdin" style="rounded=0;whiteSpace=wrap;html=1;" parent="1" vertex="1">
          <mxGeometry x="1895" y="130" width="120" height="60" as="geometry" />
        </mxCell>
        <mxCell id="4N7OyaEM5LjGRHc0Y4h--66" style="edgeStyle=orthogonalEdgeStyle;rounded=0;orthogonalLoop=1;jettySize=auto;html=1;noEdgeStyle=1;orthogonal=1;" parent="1" source="4N7OyaEM5LjGRHc0Y4h--61" target="4N7OyaEM5LjGRHc0Y4h--42" edge="1">
          <mxGeometry relative="1" as="geometry">
            <Array as="points">
              <mxPoint x="2182" y="250" />
              <mxPoint x="2258" y="327.5" />
            </Array>
          </mxGeometry>
        </mxCell>
        <mxCell id="4N7OyaEM5LjGRHc0Y4h--61" value="stdout" style="rounded=0;whiteSpace=wrap;html=1;" parent="1" vertex="1">
          <mxGeometry x="1895" y="220" width="120" height="60" as="geometry" />
        </mxCell>
        <mxCell id="4N7OyaEM5LjGRHc0Y4h--67" style="edgeStyle=orthogonalEdgeStyle;rounded=0;orthogonalLoop=1;jettySize=auto;html=1;noEdgeStyle=1;orthogonal=1;" parent="1" source="4N7OyaEM5LjGRHc0Y4h--63" target="4N7OyaEM5LjGRHc0Y4h--42" edge="1">
          <mxGeometry relative="1" as="geometry">
            <Array as="points">
              <mxPoint x="2182" y="340" />
              <mxPoint x="2258" y="402.5" />
            </Array>
          </mxGeometry>
        </mxCell>
        <mxCell id="4N7OyaEM5LjGRHc0Y4h--63" value="stderror" style="rounded=0;whiteSpace=wrap;html=1;" parent="1" vertex="1">
          <mxGeometry x="1895" y="310" width="120" height="60" as="geometry" />
        </mxCell>
        <mxCell id="4N7OyaEM5LjGRHc0Y4h--72" value="" style="edgeStyle=orthogonalEdgeStyle;rounded=0;orthogonalLoop=1;jettySize=auto;html=1;noEdgeStyle=1;orthogonal=1;" parent="1" source="4N7OyaEM5LjGRHc0Y4h--69" target="4N7OyaEM5LjGRHc0Y4h--71" edge="1">
          <mxGeometry relative="1" as="geometry">
            <Array as="points">
              <mxPoint x="572" y="350" />
              <mxPoint x="648" y="500" />
            </Array>
          </mxGeometry>
        </mxCell>
        <mxCell id="4N7OyaEM5LjGRHc0Y4h--69" value="자식 프로세스는 부모의 shell을 상속 받지 않도록 되어 있음" style="rounded=0;whiteSpace=wrap;html=1;" parent="1" vertex="1">
          <mxGeometry x="440" y="320" width="120" height="60" as="geometry" />
        </mxCell>
        <mxCell id="4N7OyaEM5LjGRHc0Y4h--74" style="edgeStyle=orthogonalEdgeStyle;rounded=0;orthogonalLoop=1;jettySize=auto;html=1;noEdgeStyle=1;orthogonal=1;" parent="1" source="4N7OyaEM5LjGRHc0Y4h--71" target="4N7OyaEM5LjGRHc0Y4h--73" edge="1">
          <mxGeometry relative="1" as="geometry">
            <Array as="points">
              <mxPoint x="1082" y="487.5" />
              <mxPoint x="1158" y="455" />
            </Array>
          </mxGeometry>
        </mxCell>
        <mxCell id="4N7OyaEM5LjGRHc0Y4h--76" value="" style="edgeStyle=orthogonalEdgeStyle;rounded=0;orthogonalLoop=1;jettySize=auto;html=1;noEdgeStyle=1;orthogonal=1;" parent="1" source="4N7OyaEM5LjGRHc0Y4h--71" target="4N7OyaEM5LjGRHc0Y4h--75" edge="1">
          <mxGeometry relative="1" as="geometry">
            <Array as="points">
              <mxPoint x="1082" y="512.5" />
              <mxPoint x="1158" y="565" />
            </Array>
          </mxGeometry>
        </mxCell>
        <mxCell id="4N7OyaEM5LjGRHc0Y4h--71" value="설정을 통해 해결 가능" style="rounded=0;whiteSpace=wrap;html=1;" parent="1" vertex="1">
          <mxGeometry x="805" y="470" width="120" height="60" as="geometry" />
        </mxCell>
        <mxCell id="4N7OyaEM5LjGRHc0Y4h--73" value="&lt;div style=&quot;color: rgb(238, 255, 255); background-color: rgb(38, 50, 56); font-family: Consolas, &amp;quot;Courier New&amp;quot;, monospace; font-weight: normal; font-size: 14px; line-height: 19px;&quot;&gt;&lt;div&gt;&lt;span style=&quot;color: #c792ea;&quot;&gt;const&lt;/span&gt;&lt;span style=&quot;color: #eeffff;&quot;&gt; &lt;/span&gt;&lt;span style=&quot;color: #eeffff;&quot;&gt;child&lt;/span&gt;&lt;span style=&quot;color: #eeffff;&quot;&gt; &lt;/span&gt;&lt;span style=&quot;color: #89ddff;&quot;&gt;=&lt;/span&gt;&lt;span style=&quot;color: #eeffff;&quot;&gt; &lt;/span&gt;&lt;span style=&quot;color: #82aaff;&quot;&gt;spawn&lt;/span&gt;&lt;span style=&quot;color: #eeffff;&quot;&gt;(&lt;/span&gt;&lt;span style=&quot;color: #89ddff;&quot;&gt;&#39;&lt;/span&gt;&lt;span style=&quot;color: #c3e88d;&quot;&gt;find . -type f | wc -l&lt;/span&gt;&lt;span style=&quot;color: #89ddff;&quot;&gt;&#39;&lt;/span&gt;&lt;span style=&quot;color: #89ddff;&quot;&gt;,&lt;/span&gt;&lt;span style=&quot;color: #eeffff;&quot;&gt; &lt;/span&gt;&lt;span style=&quot;color: #89ddff;&quot;&gt;{&lt;/span&gt;&lt;/div&gt;&lt;div&gt;&lt;span style=&quot;color: #eeffff;&quot;&gt;&amp;nbsp; &lt;/span&gt;&lt;span style=&quot;color: #eeffff;&quot;&gt;stdio&lt;/span&gt;&lt;span style=&quot;color: #89ddff;&quot;&gt;:&lt;/span&gt;&lt;span style=&quot;color: #eeffff;&quot;&gt; &lt;/span&gt;&lt;span style=&quot;color: #89ddff;&quot;&gt;&#39;&lt;/span&gt;&lt;span style=&quot;color: #c3e88d;&quot;&gt;inherit&lt;/span&gt;&lt;span style=&quot;color: #89ddff;&quot;&gt;&#39;&lt;/span&gt;&lt;span style=&quot;color: #89ddff;&quot;&gt;,&lt;/span&gt;&lt;/div&gt;&lt;div&gt;&lt;span style=&quot;color: #eeffff;&quot;&gt;&amp;nbsp; &lt;/span&gt;&lt;span style=&quot;color: #eeffff;&quot;&gt;shell&lt;/span&gt;&lt;span style=&quot;color: #89ddff;&quot;&gt;:&lt;/span&gt;&lt;span style=&quot;color: #eeffff;&quot;&gt; &lt;/span&gt;&lt;span style=&quot;color: #ff9cac;&quot;&gt;true&lt;/span&gt;&lt;/div&gt;&lt;div&gt;&lt;span style=&quot;color: #89ddff;&quot;&gt;}&lt;/span&gt;&lt;span style=&quot;color: #eeffff;&quot;&gt;)&lt;/span&gt;&lt;span style=&quot;color: #89ddff;&quot;&gt;;&lt;/span&gt;&lt;/div&gt;&lt;/div&gt;" style="text;whiteSpace=wrap;html=1;" parent="1" vertex="1">
          <mxGeometry x="1205" y="405" width="400" height="100" as="geometry" />
        </mxCell>
        <mxCell id="4N7OyaEM5LjGRHc0Y4h--78" style="edgeStyle=orthogonalEdgeStyle;rounded=0;orthogonalLoop=1;jettySize=auto;html=1;noEdgeStyle=1;orthogonal=1;" parent="1" source="4N7OyaEM5LjGRHc0Y4h--75" target="4N7OyaEM5LjGRHc0Y4h--77" edge="1">
          <mxGeometry relative="1" as="geometry">
            <Array as="points">
              <mxPoint x="1652" y="548.3333333333334" />
              <mxPoint x="1728" y="460" />
            </Array>
          </mxGeometry>
        </mxCell>
        <mxCell id="4N7OyaEM5LjGRHc0Y4h--80" style="edgeStyle=orthogonalEdgeStyle;rounded=0;orthogonalLoop=1;jettySize=auto;html=1;noEdgeStyle=1;orthogonal=1;" parent="1" source="4N7OyaEM5LjGRHc0Y4h--75" target="4N7OyaEM5LjGRHc0Y4h--79" edge="1">
          <mxGeometry relative="1" as="geometry">
            <Array as="points">
              <mxPoint x="1654" y="565" />
              <mxPoint x="1728" y="610" />
            </Array>
          </mxGeometry>
        </mxCell>
        <mxCell id="4N7OyaEM5LjGRHc0Y4h--82" style="edgeStyle=orthogonalEdgeStyle;rounded=0;orthogonalLoop=1;jettySize=auto;html=1;noEdgeStyle=1;orthogonal=1;" parent="1" source="4N7OyaEM5LjGRHc0Y4h--75" target="4N7OyaEM5LjGRHc0Y4h--81" edge="1">
          <mxGeometry relative="1" as="geometry">
            <Array as="points">
              <mxPoint x="1652" y="581.6666666666666" />
              <mxPoint x="1728" y="790" />
            </Array>
          </mxGeometry>
        </mxCell>
        <mxCell id="4N7OyaEM5LjGRHc0Y4h--75" value="여러 옵션이 있음" style="rounded=0;whiteSpace=wrap;html=1;" parent="1" vertex="1">
          <mxGeometry x="1345" y="535" width="120" height="60" as="geometry" />
        </mxCell>
        <mxCell id="4N7OyaEM5LjGRHc0Y4h--77" value="&lt;div style=&quot;color: rgb(238, 255, 255); background-color: rgb(38, 50, 56); font-family: Consolas, &amp;quot;Courier New&amp;quot;, monospace; font-weight: normal; font-size: 14px; line-height: 19px;&quot;&gt;&lt;div&gt;&lt;span style=&quot;color: #c792ea;&quot;&gt;const&lt;/span&gt;&lt;span style=&quot;color: #eeffff;&quot;&gt; &lt;/span&gt;&lt;span style=&quot;color: #eeffff;&quot;&gt;child&lt;/span&gt;&lt;span style=&quot;color: #eeffff;&quot;&gt; &lt;/span&gt;&lt;span style=&quot;color: #89ddff;&quot;&gt;=&lt;/span&gt;&lt;span style=&quot;color: #eeffff;&quot;&gt; &lt;/span&gt;&lt;span style=&quot;color: #82aaff;&quot;&gt;spawn&lt;/span&gt;&lt;span style=&quot;color: #eeffff;&quot;&gt;(&lt;/span&gt;&lt;span style=&quot;color: #89ddff;&quot;&gt;&#39;&lt;/span&gt;&lt;span style=&quot;color: #c3e88d;&quot;&gt;find . -type f | wc -l&lt;/span&gt;&lt;span style=&quot;color: #89ddff;&quot;&gt;&#39;&lt;/span&gt;&lt;span style=&quot;color: #89ddff;&quot;&gt;,&lt;/span&gt;&lt;span style=&quot;color: #eeffff;&quot;&gt; &lt;/span&gt;&lt;span style=&quot;color: #89ddff;&quot;&gt;{&lt;/span&gt;&lt;/div&gt;&lt;div&gt;&lt;span style=&quot;color: #eeffff;&quot;&gt;&amp;nbsp; &lt;/span&gt;&lt;span style=&quot;color: #eeffff;&quot;&gt;stdio&lt;/span&gt;&lt;span style=&quot;color: #89ddff;&quot;&gt;:&lt;/span&gt;&lt;span style=&quot;color: #eeffff;&quot;&gt; &lt;/span&gt;&lt;span style=&quot;color: #89ddff;&quot;&gt;&#39;&lt;/span&gt;&lt;span style=&quot;color: #c3e88d;&quot;&gt;inherit&lt;/span&gt;&lt;span style=&quot;color: #89ddff;&quot;&gt;&#39;&lt;/span&gt;&lt;span style=&quot;color: #89ddff;&quot;&gt;,&lt;/span&gt;&lt;/div&gt;&lt;div&gt;&lt;span style=&quot;color: #eeffff;&quot;&gt;&amp;nbsp; &lt;/span&gt;&lt;span style=&quot;color: #eeffff;&quot;&gt;shell&lt;/span&gt;&lt;span style=&quot;color: #89ddff;&quot;&gt;:&lt;/span&gt;&lt;span style=&quot;color: #eeffff;&quot;&gt; &lt;/span&gt;&lt;span style=&quot;color: #ff9cac;&quot;&gt;true&lt;/span&gt;&lt;span style=&quot;color: #89ddff;&quot;&gt;,&lt;/span&gt;&lt;/div&gt;&lt;div&gt;&lt;span style=&quot;color: #eeffff;&quot;&gt;&amp;nbsp; &lt;/span&gt;&lt;span style=&quot;color: #eeffff;&quot;&gt;cwd&lt;/span&gt;&lt;span style=&quot;color: #89ddff;&quot;&gt;:&lt;/span&gt;&lt;span style=&quot;color: #eeffff;&quot;&gt; &lt;/span&gt;&lt;span style=&quot;color: #89ddff;&quot;&gt;&#39;&lt;/span&gt;&lt;span style=&quot;color: #c3e88d;&quot;&gt;/Users/samer/Downloads&lt;/span&gt;&lt;span style=&quot;color: #89ddff;&quot;&gt;&#39;&lt;/span&gt;&lt;/div&gt;&lt;div&gt;&lt;span style=&quot;color: #89ddff;&quot;&gt;}&lt;/span&gt;&lt;span style=&quot;color: #eeffff;&quot;&gt;)&lt;/span&gt;&lt;span style=&quot;color: #89ddff;&quot;&gt;;&lt;/span&gt;&lt;/div&gt;&lt;/div&gt;" style="text;whiteSpace=wrap;html=1;" parent="1" vertex="1">
          <mxGeometry x="1755" y="400" width="400" height="120" as="geometry" />
        </mxCell>
        <mxCell id="4N7OyaEM5LjGRHc0Y4h--79" value="&lt;div style=&quot;color: rgb(238, 255, 255); background-color: rgb(38, 50, 56); font-family: Consolas, &amp;quot;Courier New&amp;quot;, monospace; font-weight: normal; font-size: 14px; line-height: 19px;&quot;&gt;&lt;div&gt;&lt;span style=&quot;color: #c792ea;&quot;&gt;const&lt;/span&gt;&lt;span style=&quot;color: #eeffff;&quot;&gt; &lt;/span&gt;&lt;span style=&quot;color: #eeffff;&quot;&gt;child&lt;/span&gt;&lt;span style=&quot;color: #eeffff;&quot;&gt; &lt;/span&gt;&lt;span style=&quot;color: #89ddff;&quot;&gt;=&lt;/span&gt;&lt;span style=&quot;color: #eeffff;&quot;&gt; &lt;/span&gt;&lt;span style=&quot;color: #82aaff;&quot;&gt;spawn&lt;/span&gt;&lt;span style=&quot;color: #eeffff;&quot;&gt;(&lt;/span&gt;&lt;span style=&quot;color: #89ddff;&quot;&gt;&#39;&lt;/span&gt;&lt;span style=&quot;color: #c3e88d;&quot;&gt;echo $ANSWER&lt;/span&gt;&lt;span style=&quot;color: #89ddff;&quot;&gt;&#39;&lt;/span&gt;&lt;span style=&quot;color: #89ddff;&quot;&gt;,&lt;/span&gt;&lt;span style=&quot;color: #eeffff;&quot;&gt; &lt;/span&gt;&lt;span style=&quot;color: #89ddff;&quot;&gt;{&lt;/span&gt;&lt;/div&gt;&lt;div&gt;&lt;span style=&quot;color: #eeffff;&quot;&gt;&amp;nbsp; &lt;/span&gt;&lt;span style=&quot;color: #eeffff;&quot;&gt;stdio&lt;/span&gt;&lt;span style=&quot;color: #89ddff;&quot;&gt;:&lt;/span&gt;&lt;span style=&quot;color: #eeffff;&quot;&gt; &lt;/span&gt;&lt;span style=&quot;color: #89ddff;&quot;&gt;&#39;&lt;/span&gt;&lt;span style=&quot;color: #c3e88d;&quot;&gt;inherit&lt;/span&gt;&lt;span style=&quot;color: #89ddff;&quot;&gt;&#39;&lt;/span&gt;&lt;span style=&quot;color: #89ddff;&quot;&gt;,&lt;/span&gt;&lt;/div&gt;&lt;div&gt;&lt;span style=&quot;color: #eeffff;&quot;&gt;&amp;nbsp; &lt;/span&gt;&lt;span style=&quot;color: #eeffff;&quot;&gt;shell&lt;/span&gt;&lt;span style=&quot;color: #89ddff;&quot;&gt;:&lt;/span&gt;&lt;span style=&quot;color: #eeffff;&quot;&gt; &lt;/span&gt;&lt;span style=&quot;color: #ff9cac;&quot;&gt;true&lt;/span&gt;&lt;span style=&quot;color: #89ddff;&quot;&gt;,&lt;/span&gt;&lt;/div&gt;&lt;div&gt;&lt;span style=&quot;color: #eeffff;&quot;&gt;&amp;nbsp; &lt;/span&gt;&lt;span style=&quot;color: #eeffff;&quot;&gt;env&lt;/span&gt;&lt;span style=&quot;color: #89ddff;&quot;&gt;:&lt;/span&gt;&lt;span style=&quot;color: #eeffff;&quot;&gt; &lt;/span&gt;&lt;span style=&quot;color: #89ddff;&quot;&gt;{&lt;/span&gt;&lt;span style=&quot;color: #eeffff;&quot;&gt; &lt;/span&gt;&lt;span style=&quot;color: #eeffff;&quot;&gt;ANSWER&lt;/span&gt;&lt;span style=&quot;color: #89ddff;&quot;&gt;:&lt;/span&gt;&lt;span style=&quot;color: #eeffff;&quot;&gt; &lt;/span&gt;&lt;span style=&quot;color: #f78c6c;&quot;&gt;42&lt;/span&gt;&lt;span style=&quot;color: #eeffff;&quot;&gt; &lt;/span&gt;&lt;span style=&quot;color: #89ddff;&quot;&gt;},&lt;/span&gt;&lt;/div&gt;&lt;div&gt;&lt;span style=&quot;color: #89ddff;&quot;&gt;}&lt;/span&gt;&lt;span style=&quot;color: #eeffff;&quot;&gt;)&lt;/span&gt;&lt;span style=&quot;color: #89ddff;&quot;&gt;;&lt;/span&gt;&lt;/div&gt;&lt;/div&gt;" style="text;whiteSpace=wrap;html=1;" parent="1" vertex="1">
          <mxGeometry x="1795" y="550" width="320" height="120" as="geometry" />
        </mxCell>
        <mxCell id="4N7OyaEM5LjGRHc0Y4h--81" value="&lt;div style=&quot;color: rgb(238, 255, 255); background-color: rgb(38, 50, 56); font-family: Consolas, &amp;quot;Courier New&amp;quot;, monospace; font-weight: normal; font-size: 14px; line-height: 19px;&quot;&gt;&lt;div&gt;&lt;span style=&quot;color: #c792ea;&quot;&gt;const&lt;/span&gt;&lt;span style=&quot;color: #eeffff;&quot;&gt; &lt;/span&gt;&lt;span style=&quot;color: #89ddff;&quot;&gt;{&lt;/span&gt;&lt;span style=&quot;color: #eeffff;&quot;&gt; &lt;/span&gt;&lt;span style=&quot;color: #82aaff;&quot;&gt;spawn&lt;/span&gt;&lt;span style=&quot;color: #eeffff;&quot;&gt; &lt;/span&gt;&lt;span style=&quot;color: #89ddff;&quot;&gt;}&lt;/span&gt;&lt;span style=&quot;color: #eeffff;&quot;&gt; &lt;/span&gt;&lt;span style=&quot;color: #89ddff;&quot;&gt;=&lt;/span&gt;&lt;span style=&quot;color: #eeffff;&quot;&gt; &lt;/span&gt;&lt;span style=&quot;color: #82aaff;&quot;&gt;require&lt;/span&gt;&lt;span style=&quot;color: #eeffff;&quot;&gt;(&lt;/span&gt;&lt;span style=&quot;color: #89ddff;&quot;&gt;&#39;&lt;/span&gt;&lt;span style=&quot;color: #c3e88d;&quot;&gt;child_process&lt;/span&gt;&lt;span style=&quot;color: #89ddff;&quot;&gt;&#39;&lt;/span&gt;&lt;span style=&quot;color: #eeffff;&quot;&gt;)&lt;/span&gt;&lt;span style=&quot;color: #89ddff;&quot;&gt;;&lt;/span&gt;&lt;/div&gt;&lt;br&gt;&lt;div&gt;&lt;span style=&quot;color: #c792ea;&quot;&gt;const&lt;/span&gt;&lt;span style=&quot;color: #eeffff;&quot;&gt; &lt;/span&gt;&lt;span style=&quot;color: #eeffff;&quot;&gt;child&lt;/span&gt;&lt;span style=&quot;color: #eeffff;&quot;&gt; &lt;/span&gt;&lt;span style=&quot;color: #89ddff;&quot;&gt;=&lt;/span&gt;&lt;span style=&quot;color: #eeffff;&quot;&gt; &lt;/span&gt;&lt;span style=&quot;color: #82aaff;&quot;&gt;spawn&lt;/span&gt;&lt;span style=&quot;color: #eeffff;&quot;&gt;(&lt;/span&gt;&lt;span style=&quot;color: #89ddff;&quot;&gt;&#39;&lt;/span&gt;&lt;span style=&quot;color: #c3e88d;&quot;&gt;node&lt;/span&gt;&lt;span style=&quot;color: #89ddff;&quot;&gt;&#39;&lt;/span&gt;&lt;span style=&quot;color: #89ddff;&quot;&gt;,&lt;/span&gt;&lt;span style=&quot;color: #eeffff;&quot;&gt; [&lt;/span&gt;&lt;span style=&quot;color: #89ddff;&quot;&gt;&#39;&lt;/span&gt;&lt;span style=&quot;color: #c3e88d;&quot;&gt;timer.js&lt;/span&gt;&lt;span style=&quot;color: #89ddff;&quot;&gt;&#39;&lt;/span&gt;&lt;span style=&quot;color: #eeffff;&quot;&gt;]&lt;/span&gt;&lt;span style=&quot;color: #89ddff;&quot;&gt;,&lt;/span&gt;&lt;span style=&quot;color: #eeffff;&quot;&gt; &lt;/span&gt;&lt;span style=&quot;color: #89ddff;&quot;&gt;{&lt;/span&gt;&lt;/div&gt;&lt;div&gt;&lt;span style=&quot;color: #eeffff;&quot;&gt;&amp;nbsp; &lt;/span&gt;&lt;span style=&quot;color: #eeffff;&quot;&gt;detached&lt;/span&gt;&lt;span style=&quot;color: #89ddff;&quot;&gt;:&lt;/span&gt;&lt;span style=&quot;color: #eeffff;&quot;&gt; &lt;/span&gt;&lt;span style=&quot;color: #ff9cac;&quot;&gt;true&lt;/span&gt;&lt;span style=&quot;color: #89ddff;&quot;&gt;,&lt;/span&gt;&lt;/div&gt;&lt;div&gt;&lt;span style=&quot;color: #eeffff;&quot;&gt;&amp;nbsp; &lt;/span&gt;&lt;span style=&quot;color: #eeffff;&quot;&gt;stdio&lt;/span&gt;&lt;span style=&quot;color: #89ddff;&quot;&gt;:&lt;/span&gt;&lt;span style=&quot;color: #eeffff;&quot;&gt; &lt;/span&gt;&lt;span style=&quot;color: #89ddff;&quot;&gt;&#39;&lt;/span&gt;&lt;span style=&quot;color: #c3e88d;&quot;&gt;ignore&lt;/span&gt;&lt;span style=&quot;color: #89ddff;&quot;&gt;&#39;&lt;/span&gt;&lt;/div&gt;&lt;div&gt;&lt;span style=&quot;color: #89ddff;&quot;&gt;}&lt;/span&gt;&lt;span style=&quot;color: #eeffff;&quot;&gt;)&lt;/span&gt;&lt;span style=&quot;color: #89ddff;&quot;&gt;;&lt;/span&gt;&lt;/div&gt;&lt;br&gt;&lt;div&gt;&lt;span style=&quot;color: #eeffff;&quot;&gt;child&lt;/span&gt;&lt;span style=&quot;color: #89ddff;&quot;&gt;.&lt;/span&gt;&lt;span style=&quot;color: #82aaff;&quot;&gt;unref&lt;/span&gt;&lt;span style=&quot;color: #eeffff;&quot;&gt;()&lt;/span&gt;&lt;span style=&quot;color: #89ddff;&quot;&gt;;&lt;/span&gt;&lt;/div&gt;&lt;/div&gt;" style="text;whiteSpace=wrap;html=1;" parent="1" vertex="1">
          <mxGeometry x="1775" y="700" width="360" height="180" as="geometry" />
        </mxCell>
        <mxCell id="4N7OyaEM5LjGRHc0Y4h--83" value="shell을 사용하지 않고 파일을 실행하는 메소드" style="rounded=0;whiteSpace=wrap;html=1;" parent="1" vertex="1">
          <mxGeometry x="440" y="590" width="120" height="60" as="geometry" />
        </mxCell>
        <mxCell id="4N7OyaEM5LjGRHc0Y4h--89" value="" style="edgeStyle=orthogonalEdgeStyle;rounded=0;orthogonalLoop=1;jettySize=auto;html=1;noEdgeStyle=1;orthogonal=1;" parent="1" source="4N7OyaEM5LjGRHc0Y4h--86" target="4N7OyaEM5LjGRHc0Y4h--88" edge="1">
          <mxGeometry relative="1" as="geometry">
            <Array as="points">
              <mxPoint x="352" y="620" />
              <mxPoint x="428" y="710" />
            </Array>
          </mxGeometry>
        </mxCell>
        <mxCell id="4N7OyaEM5LjGRHc0Y4h--86" value="sync functions" style="rounded=0;whiteSpace=wrap;html=1;" parent="1" vertex="1">
          <mxGeometry x="220" y="590" width="120" height="60" as="geometry" />
        </mxCell>
        <mxCell id="4N7OyaEM5LjGRHc0Y4h--88" value="자식 프로세스 처리를 대기 하는 메소드" style="rounded=0;whiteSpace=wrap;html=1;" parent="1" vertex="1">
          <mxGeometry x="440" y="680" width="120" height="60" as="geometry" />
        </mxCell>
        <mxCell id="4N7OyaEM5LjGRHc0Y4h--95" style="edgeStyle=orthogonalEdgeStyle;rounded=0;orthogonalLoop=1;jettySize=auto;html=1;noEdgeStyle=1;orthogonal=1;" parent="1" source="4N7OyaEM5LjGRHc0Y4h--92" target="4N7OyaEM5LjGRHc0Y4h--94" edge="1">
          <mxGeometry relative="1" as="geometry">
            <Array as="points">
              <mxPoint x="572" y="440" />
              <mxPoint x="648" y="655" />
            </Array>
          </mxGeometry>
        </mxCell>
        <mxCell id="4N7OyaEM5LjGRHc0Y4h--92" value="부모와 자식 프로세스 간의 메세지 파이프를 자동으로 연결함" style="rounded=0;whiteSpace=wrap;html=1;" parent="1" vertex="1">
          <mxGeometry x="440" y="410" width="120" height="60" as="geometry" />
        </mxCell>
        <mxCell id="4N7OyaEM5LjGRHc0Y4h--94" value="&lt;div style=&quot;color: rgb(238, 255, 255); background-color: rgb(38, 50, 56); font-family: Consolas, &amp;quot;Courier New&amp;quot;, monospace; font-weight: normal; font-size: 14px; line-height: 19px;&quot;&gt;&lt;div&gt;&lt;span style=&quot;color: #c792ea;&quot;&gt;const&lt;/span&gt;&lt;span style=&quot;color: #eeffff;&quot;&gt; &lt;/span&gt;&lt;span style=&quot;color: #89ddff;&quot;&gt;{&lt;/span&gt;&lt;span style=&quot;color: #eeffff;&quot;&gt; &lt;/span&gt;&lt;span style=&quot;color: #82aaff;&quot;&gt;fork&lt;/span&gt;&lt;span style=&quot;color: #eeffff;&quot;&gt; &lt;/span&gt;&lt;span style=&quot;color: #89ddff;&quot;&gt;}&lt;/span&gt;&lt;span style=&quot;color: #eeffff;&quot;&gt; &lt;/span&gt;&lt;span style=&quot;color: #89ddff;&quot;&gt;=&lt;/span&gt;&lt;span style=&quot;color: #eeffff;&quot;&gt; &lt;/span&gt;&lt;span style=&quot;color: #82aaff;&quot;&gt;require&lt;/span&gt;&lt;span style=&quot;color: #eeffff;&quot;&gt;(&lt;/span&gt;&lt;span style=&quot;color: #89ddff;&quot;&gt;&#39;&lt;/span&gt;&lt;span style=&quot;color: #c3e88d;&quot;&gt;child_process&lt;/span&gt;&lt;span style=&quot;color: #89ddff;&quot;&gt;&#39;&lt;/span&gt;&lt;span style=&quot;color: #eeffff;&quot;&gt;)&lt;/span&gt;&lt;span style=&quot;color: #89ddff;&quot;&gt;;&lt;/span&gt;&lt;/div&gt;&lt;br&gt;&lt;div&gt;&lt;span style=&quot;color: #c792ea;&quot;&gt;const&lt;/span&gt;&lt;span style=&quot;color: #eeffff;&quot;&gt; &lt;/span&gt;&lt;span style=&quot;color: #eeffff;&quot;&gt;forked&lt;/span&gt;&lt;span style=&quot;color: #eeffff;&quot;&gt; &lt;/span&gt;&lt;span style=&quot;color: #89ddff;&quot;&gt;=&lt;/span&gt;&lt;span style=&quot;color: #eeffff;&quot;&gt; &lt;/span&gt;&lt;span style=&quot;color: #82aaff;&quot;&gt;fork&lt;/span&gt;&lt;span style=&quot;color: #eeffff;&quot;&gt;(&lt;/span&gt;&lt;span style=&quot;color: #89ddff;&quot;&gt;&#39;&lt;/span&gt;&lt;span style=&quot;color: #c3e88d;&quot;&gt;child.js&lt;/span&gt;&lt;span style=&quot;color: #89ddff;&quot;&gt;&#39;&lt;/span&gt;&lt;span style=&quot;color: #eeffff;&quot;&gt;)&lt;/span&gt;&lt;span style=&quot;color: #89ddff;&quot;&gt;;&lt;/span&gt;&lt;/div&gt;&lt;br&gt;&lt;div&gt;&lt;span style=&quot;color: #eeffff;&quot;&gt;forked&lt;/span&gt;&lt;span style=&quot;color: #89ddff;&quot;&gt;.&lt;/span&gt;&lt;span style=&quot;color: #82aaff;&quot;&gt;on&lt;/span&gt;&lt;span style=&quot;color: #eeffff;&quot;&gt;(&lt;/span&gt;&lt;span style=&quot;color: #89ddff;&quot;&gt;&#39;&lt;/span&gt;&lt;span style=&quot;color: #c3e88d;&quot;&gt;message&lt;/span&gt;&lt;span style=&quot;color: #89ddff;&quot;&gt;&#39;&lt;/span&gt;&lt;span style=&quot;color: #89ddff;&quot;&gt;,&lt;/span&gt;&lt;span style=&quot;color: #eeffff;&quot;&gt; &lt;/span&gt;&lt;span style=&quot;color: #89ddff;&quot;&gt;(&lt;/span&gt;&lt;span style=&quot;color: #eeffff;font-style: italic;&quot;&gt;msg&lt;/span&gt;&lt;span style=&quot;color: #89ddff;&quot;&gt;)&lt;/span&gt;&lt;span style=&quot;color: #eeffff;&quot;&gt; &lt;/span&gt;&lt;span style=&quot;color: #c792ea;&quot;&gt;=&amp;gt;&lt;/span&gt;&lt;span style=&quot;color: #eeffff;&quot;&gt; &lt;/span&gt;&lt;span style=&quot;color: #89ddff;&quot;&gt;{&lt;/span&gt;&lt;/div&gt;&lt;div&gt;&lt;span style=&quot;color: #f07178;&quot;&gt;&amp;nbsp; &lt;/span&gt;&lt;span style=&quot;color: #eeffff;&quot;&gt;console&lt;/span&gt;&lt;span style=&quot;color: #89ddff;&quot;&gt;.&lt;/span&gt;&lt;span style=&quot;color: #82aaff;&quot;&gt;log&lt;/span&gt;&lt;span style=&quot;color: #f07178;&quot;&gt;(&lt;/span&gt;&lt;span style=&quot;color: #89ddff;&quot;&gt;&#39;&lt;/span&gt;&lt;span style=&quot;color: #c3e88d;&quot;&gt;Message from child&lt;/span&gt;&lt;span style=&quot;color: #89ddff;&quot;&gt;&#39;&lt;/span&gt;&lt;span style=&quot;color: #89ddff;&quot;&gt;,&lt;/span&gt;&lt;span style=&quot;color: #f07178;&quot;&gt; &lt;/span&gt;&lt;span style=&quot;color: #eeffff;font-style: italic;&quot;&gt;msg&lt;/span&gt;&lt;span style=&quot;color: #f07178;&quot;&gt;)&lt;/span&gt;&lt;span style=&quot;color: #89ddff;&quot;&gt;;&lt;/span&gt;&lt;/div&gt;&lt;div&gt;&lt;span style=&quot;color: #89ddff;&quot;&gt;}&lt;/span&gt;&lt;span style=&quot;color: #eeffff;&quot;&gt;)&lt;/span&gt;&lt;span style=&quot;color: #89ddff;&quot;&gt;;&lt;/span&gt;&lt;/div&gt;&lt;br&gt;&lt;div&gt;&lt;span style=&quot;color: #eeffff;&quot;&gt;forked&lt;/span&gt;&lt;span style=&quot;color: #89ddff;&quot;&gt;.&lt;/span&gt;&lt;span style=&quot;color: #82aaff;&quot;&gt;send&lt;/span&gt;&lt;span style=&quot;color: #eeffff;&quot;&gt;(&lt;/span&gt;&lt;span style=&quot;color: #89ddff;&quot;&gt;{&lt;/span&gt;&lt;span style=&quot;color: #eeffff;&quot;&gt; &lt;/span&gt;&lt;span style=&quot;color: #eeffff;&quot;&gt;hello&lt;/span&gt;&lt;span style=&quot;color: #89ddff;&quot;&gt;:&lt;/span&gt;&lt;span style=&quot;color: #eeffff;&quot;&gt; &lt;/span&gt;&lt;span style=&quot;color: #89ddff;&quot;&gt;&#39;&lt;/span&gt;&lt;span style=&quot;color: #c3e88d;&quot;&gt;world&lt;/span&gt;&lt;span style=&quot;color: #89ddff;&quot;&gt;&#39;&lt;/span&gt;&lt;span style=&quot;color: #eeffff;&quot;&gt; &lt;/span&gt;&lt;span style=&quot;color: #89ddff;&quot;&gt;}&lt;/span&gt;&lt;span style=&quot;color: #eeffff;&quot;&gt;)&lt;/span&gt;&lt;span style=&quot;color: #89ddff;&quot;&gt;;&lt;/span&gt;&lt;/div&gt;&lt;/div&gt;" style="text;whiteSpace=wrap;html=1;" parent="1" vertex="1">
          <mxGeometry x="685" y="560" width="360" height="190" as="geometry" />
        </mxCell>
      </root>
    </mxGraphModel>
  </diagram>
  <diagram id="PreS02GUY70elbyzS5D_" name="페이지-2">
    <mxGraphModel dx="3046" dy="1144" grid="1" gridSize="10" guides="1" tooltips="1" connect="1" arrows="1" fold="1" page="1" pageScale="1" pageWidth="827" pageHeight="1169" math="0" shadow="0">
      <root>
        <mxCell id="0" />
        <mxCell id="1" parent="0" />
        <mxCell id="CLmMiWkLYGzM4xCE3e-k-40" value="" style="rounded=0;whiteSpace=wrap;html=1;fillColor=#f5f5f5;strokeColor=#666666;fontColor=#333333;fontStyle=1" vertex="1" parent="1">
          <mxGeometry x="-50" y="570" width="1180" height="1290" as="geometry" />
        </mxCell>
        <mxCell id="CLmMiWkLYGzM4xCE3e-k-1" value="사용자" style="shape=note;whiteSpace=wrap;html=1;backgroundOutline=1;darkOpacity=0.05;fillColor=#d5e8d4;strokeColor=#82b366;fillStyle=solid;direction=west;gradientDirection=north;shadow=0;size=20;pointerEvents=1;gradientColor=#97d077;fontStyle=1" vertex="1" parent="1">
          <mxGeometry x="260" y="200" width="140" height="40" as="geometry" />
        </mxCell>
        <mxCell id="CLmMiWkLYGzM4xCE3e-k-3" value="커맨드" style="shape=note;whiteSpace=wrap;html=1;backgroundOutline=1;darkOpacity=0.05;fillColor=#dae8fc;strokeColor=#6c8ebf;fillStyle=solid;direction=west;gradientDirection=north;shadow=0;size=20;pointerEvents=1;gradientColor=#7ea6e0;fontStyle=1" vertex="1" parent="1">
          <mxGeometry x="430" y="50" width="140" height="160" as="geometry" />
        </mxCell>
        <mxCell id="CLmMiWkLYGzM4xCE3e-k-4" value="에그리깃" style="shape=note;whiteSpace=wrap;html=1;backgroundOutline=1;darkOpacity=0.05;fillColor=#ffcd28;strokeColor=#d79b00;fillStyle=solid;direction=west;gradientDirection=north;shadow=0;size=20;pointerEvents=1;gradientColor=#ffa500;fontStyle=1" vertex="1" parent="1">
          <mxGeometry x="590" y="220" width="140" height="160" as="geometry" />
        </mxCell>
        <mxCell id="CLmMiWkLYGzM4xCE3e-k-5" value="정책" style="shape=note;whiteSpace=wrap;html=1;backgroundOutline=1;darkOpacity=0.05;fillColor=#e6d0de;strokeColor=#996185;fillStyle=solid;direction=west;gradientDirection=north;shadow=0;size=20;pointerEvents=1;gradientColor=#d5739d;fontStyle=1" vertex="1" parent="1">
          <mxGeometry x="430" y="220" width="140" height="160" as="geometry" />
        </mxCell>
        <mxCell id="CLmMiWkLYGzM4xCE3e-k-6" value="외부 서버" style="shape=note;whiteSpace=wrap;html=1;backgroundOutline=1;darkOpacity=0.05;fillColor=#f8cecc;strokeColor=#b85450;fillStyle=solid;direction=west;gradientDirection=north;shadow=0;size=20;pointerEvents=1;gradientColor=#ea6b66;fontStyle=1" vertex="1" parent="1">
          <mxGeometry x="750" y="220" width="140" height="160" as="geometry" />
        </mxCell>
        <mxCell id="CLmMiWkLYGzM4xCE3e-k-7" value="도메인 이벤트" style="shape=note;whiteSpace=wrap;html=1;backgroundOutline=1;darkOpacity=0.05;fillColor=#fff2cc;strokeColor=#d6b656;fillStyle=solid;direction=west;gradientDirection=north;shadow=0;size=20;pointerEvents=1;gradientColor=#ffd966;fontStyle=1" vertex="1" parent="1">
          <mxGeometry x="590" y="50" width="140" height="160" as="geometry" />
        </mxCell>
        <mxCell id="CLmMiWkLYGzM4xCE3e-k-8" value="핫스" style="shape=note;whiteSpace=wrap;html=1;backgroundOutline=1;darkOpacity=0.05;fillColor=#f5f5f5;strokeColor=#666666;fillStyle=solid;direction=west;gradientDirection=north;shadow=0;size=20;pointerEvents=1;gradientColor=#b3b3b3;fontStyle=1" vertex="1" parent="1">
          <mxGeometry x="750" y="50" width="140" height="160" as="geometry" />
        </mxCell>
        <mxCell id="CLmMiWkLYGzM4xCE3e-k-9" value="회원가입" style="shape=note;whiteSpace=wrap;html=1;backgroundOutline=1;darkOpacity=0.05;fillColor=#dae8fc;strokeColor=#6c8ebf;fillStyle=solid;direction=west;gradientDirection=north;shadow=0;size=20;pointerEvents=1;gradientColor=#7ea6e0;fontStyle=1" vertex="1" parent="1">
          <mxGeometry x="160" y="680" width="140" height="160" as="geometry" />
        </mxCell>
        <mxCell id="CLmMiWkLYGzM4xCE3e-k-10" value="비회원" style="shape=note;whiteSpace=wrap;html=1;backgroundOutline=1;darkOpacity=0.05;fillColor=#d5e8d4;strokeColor=#82b366;fillStyle=solid;direction=west;gradientDirection=north;shadow=0;size=20;pointerEvents=1;gradientColor=#97d077;fontStyle=1" vertex="1" parent="1">
          <mxGeometry x="20" y="800" width="140" height="40" as="geometry" />
        </mxCell>
        <mxCell id="CLmMiWkLYGzM4xCE3e-k-16" style="edgeStyle=none;curved=1;rounded=0;orthogonalLoop=1;jettySize=auto;html=1;endArrow=open;startSize=14;endSize=14;sourcePerimeterSpacing=8;targetPerimeterSpacing=8;fontStyle=1" edge="1" parent="1" source="CLmMiWkLYGzM4xCE3e-k-11" target="CLmMiWkLYGzM4xCE3e-k-13">
          <mxGeometry relative="1" as="geometry" />
        </mxCell>
        <mxCell id="CLmMiWkLYGzM4xCE3e-k-11" value="로그인" style="shape=note;whiteSpace=wrap;html=1;backgroundOutline=1;darkOpacity=0.05;fillColor=#dae8fc;strokeColor=#6c8ebf;fillStyle=solid;direction=west;gradientDirection=north;shadow=0;size=20;pointerEvents=1;gradientColor=#7ea6e0;fontStyle=1" vertex="1" parent="1">
          <mxGeometry x="160" y="910" width="140" height="160" as="geometry" />
        </mxCell>
        <mxCell id="CLmMiWkLYGzM4xCE3e-k-12" value="비회원" style="shape=note;whiteSpace=wrap;html=1;backgroundOutline=1;darkOpacity=0.05;fillColor=#d5e8d4;strokeColor=#82b366;fillStyle=solid;direction=west;gradientDirection=north;shadow=0;size=20;pointerEvents=1;gradientColor=#97d077;fontStyle=1" vertex="1" parent="1">
          <mxGeometry x="20" y="1030" width="140" height="40" as="geometry" />
        </mxCell>
        <mxCell id="CLmMiWkLYGzM4xCE3e-k-18" style="edgeStyle=none;curved=1;rounded=0;orthogonalLoop=1;jettySize=auto;html=1;endArrow=open;startSize=14;endSize=14;sourcePerimeterSpacing=8;targetPerimeterSpacing=8;fontStyle=1" edge="1" parent="1" source="CLmMiWkLYGzM4xCE3e-k-13" target="CLmMiWkLYGzM4xCE3e-k-17">
          <mxGeometry relative="1" as="geometry" />
        </mxCell>
        <mxCell id="CLmMiWkLYGzM4xCE3e-k-20" style="edgeStyle=none;curved=1;rounded=0;orthogonalLoop=1;jettySize=auto;html=1;endArrow=open;startSize=14;endSize=14;sourcePerimeterSpacing=8;targetPerimeterSpacing=8;fontStyle=1" edge="1" parent="1" source="CLmMiWkLYGzM4xCE3e-k-13" target="CLmMiWkLYGzM4xCE3e-k-19">
          <mxGeometry relative="1" as="geometry" />
        </mxCell>
        <mxCell id="CLmMiWkLYGzM4xCE3e-k-13" value="OAuth2.0" style="shape=note;whiteSpace=wrap;html=1;backgroundOutline=1;darkOpacity=0.05;fillColor=#f8cecc;strokeColor=#b85450;fillStyle=solid;direction=west;gradientDirection=north;shadow=0;size=20;pointerEvents=1;gradientColor=#ea6b66;fontStyle=1" vertex="1" parent="1">
          <mxGeometry x="390" y="800" width="140" height="160" as="geometry" />
        </mxCell>
        <mxCell id="CLmMiWkLYGzM4xCE3e-k-15" style="edgeStyle=none;curved=0;rounded=0;orthogonalLoop=1;jettySize=auto;html=1;endArrow=open;startSize=14;endSize=14;sourcePerimeterSpacing=8;targetPerimeterSpacing=8;fontStyle=1" edge="1" parent="1" source="CLmMiWkLYGzM4xCE3e-k-9" target="CLmMiWkLYGzM4xCE3e-k-13">
          <mxGeometry relative="1" as="geometry" />
        </mxCell>
        <mxCell id="CLmMiWkLYGzM4xCE3e-k-17" value="회원가입 됨" style="shape=note;whiteSpace=wrap;html=1;backgroundOutline=1;darkOpacity=0.05;fillColor=#ffcd28;strokeColor=#d79b00;fillStyle=solid;direction=west;gradientDirection=north;shadow=0;size=20;pointerEvents=1;gradientColor=#ffa500;fontStyle=1" vertex="1" parent="1">
          <mxGeometry x="620" y="680" width="140" height="160" as="geometry" />
        </mxCell>
        <mxCell id="CLmMiWkLYGzM4xCE3e-k-19" value="토큰 검증" style="shape=note;whiteSpace=wrap;html=1;backgroundOutline=1;darkOpacity=0.05;fillColor=#dae8fc;strokeColor=#6c8ebf;fillStyle=solid;direction=west;gradientDirection=north;shadow=0;size=20;pointerEvents=1;gradientColor=#7ea6e0;fontStyle=1" vertex="1" parent="1">
          <mxGeometry x="620" y="910" width="140" height="160" as="geometry" />
        </mxCell>
        <mxCell id="CLmMiWkLYGzM4xCE3e-k-21" value="권한 체크" style="shape=note;whiteSpace=wrap;html=1;backgroundOutline=1;darkOpacity=0.05;fillColor=#dae8fc;strokeColor=#6c8ebf;fillStyle=solid;direction=west;gradientDirection=north;shadow=0;size=20;pointerEvents=1;gradientColor=#7ea6e0;fontStyle=1" vertex="1" parent="1">
          <mxGeometry x="760" y="910" width="140" height="160" as="geometry" />
        </mxCell>
        <mxCell id="CLmMiWkLYGzM4xCE3e-k-22" value="로그인 됨" style="shape=note;whiteSpace=wrap;html=1;backgroundOutline=1;darkOpacity=0.05;fillColor=#ffcd28;strokeColor=#d79b00;fillStyle=solid;direction=west;gradientDirection=north;shadow=0;size=20;pointerEvents=1;gradientColor=#ffa500;fontStyle=1" vertex="1" parent="1">
          <mxGeometry x="900" y="910" width="140" height="160" as="geometry" />
        </mxCell>
        <mxCell id="CLmMiWkLYGzM4xCE3e-k-36" value="유저" style="shape=note;whiteSpace=wrap;html=1;backgroundOutline=1;darkOpacity=0.05;fillColor=#fff2cc;strokeColor=#d6b656;fillStyle=solid;direction=west;gradientDirection=north;shadow=0;size=20;pointerEvents=1;gradientColor=#ffd966;fontStyle=1" vertex="1" parent="1">
          <mxGeometry x="760" y="680" width="140" height="160" as="geometry" />
        </mxCell>
        <mxCell id="CLmMiWkLYGzM4xCE3e-k-42" value="" style="group;fontStyle=1" vertex="1" connectable="0" parent="1">
          <mxGeometry y="1110" width="740" height="720" as="geometry" />
        </mxCell>
        <mxCell id="CLmMiWkLYGzM4xCE3e-k-41" value="" style="rounded=0;whiteSpace=wrap;html=1;fillColor=#f8cecc;strokeColor=#b85450;fontStyle=1" vertex="1" parent="CLmMiWkLYGzM4xCE3e-k-42">
          <mxGeometry width="740" height="720" as="geometry" />
        </mxCell>
        <mxCell id="CLmMiWkLYGzM4xCE3e-k-23" value="회원" style="shape=note;whiteSpace=wrap;html=1;backgroundOutline=1;darkOpacity=0.05;fillColor=#d5e8d4;strokeColor=#82b366;fillStyle=solid;direction=west;gradientDirection=north;shadow=0;size=20;pointerEvents=1;gradientColor=#97d077;fontStyle=1" vertex="1" parent="CLmMiWkLYGzM4xCE3e-k-42">
          <mxGeometry x="20" y="170" width="140" height="40" as="geometry" />
        </mxCell>
        <mxCell id="CLmMiWkLYGzM4xCE3e-k-24" value="회원탈퇴" style="shape=note;whiteSpace=wrap;html=1;backgroundOutline=1;darkOpacity=0.05;fillColor=#dae8fc;strokeColor=#6c8ebf;fillStyle=solid;direction=west;gradientDirection=north;shadow=0;size=20;pointerEvents=1;gradientColor=#7ea6e0;fontStyle=1" vertex="1" parent="CLmMiWkLYGzM4xCE3e-k-42">
          <mxGeometry x="160" y="50" width="140" height="160" as="geometry" />
        </mxCell>
        <mxCell id="CLmMiWkLYGzM4xCE3e-k-26" value="토큰 검증" style="shape=note;whiteSpace=wrap;html=1;backgroundOutline=1;darkOpacity=0.05;fillColor=#dae8fc;strokeColor=#6c8ebf;fillStyle=solid;direction=west;gradientDirection=north;shadow=0;size=20;pointerEvents=1;gradientColor=#7ea6e0;fontStyle=1" vertex="1" parent="CLmMiWkLYGzM4xCE3e-k-42">
          <mxGeometry x="300" y="50" width="140" height="160" as="geometry" />
        </mxCell>
        <mxCell id="CLmMiWkLYGzM4xCE3e-k-27" value="회원탈퇴 됨" style="shape=note;whiteSpace=wrap;html=1;backgroundOutline=1;darkOpacity=0.05;fillColor=#ffcd28;strokeColor=#d79b00;fillStyle=solid;direction=west;gradientDirection=north;shadow=0;size=20;pointerEvents=1;gradientColor=#ffa500;fontStyle=1" vertex="1" parent="CLmMiWkLYGzM4xCE3e-k-42">
          <mxGeometry x="440" y="50" width="140" height="160" as="geometry" />
        </mxCell>
        <mxCell id="CLmMiWkLYGzM4xCE3e-k-28" value="회원" style="shape=note;whiteSpace=wrap;html=1;backgroundOutline=1;darkOpacity=0.05;fillColor=#d5e8d4;strokeColor=#82b366;fillStyle=solid;direction=west;gradientDirection=north;shadow=0;size=20;pointerEvents=1;gradientColor=#97d077;fontStyle=1" vertex="1" parent="CLmMiWkLYGzM4xCE3e-k-42">
          <mxGeometry x="20" y="410" width="140" height="40" as="geometry" />
        </mxCell>
        <mxCell id="CLmMiWkLYGzM4xCE3e-k-29" value="로그아웃" style="shape=note;whiteSpace=wrap;html=1;backgroundOutline=1;darkOpacity=0.05;fillColor=#dae8fc;strokeColor=#6c8ebf;fillStyle=solid;direction=west;gradientDirection=north;shadow=0;size=20;pointerEvents=1;gradientColor=#7ea6e0;fontStyle=1" vertex="1" parent="CLmMiWkLYGzM4xCE3e-k-42">
          <mxGeometry x="160" y="290" width="140" height="160" as="geometry" />
        </mxCell>
        <mxCell id="CLmMiWkLYGzM4xCE3e-k-30" value="토큰 검증" style="shape=note;whiteSpace=wrap;html=1;backgroundOutline=1;darkOpacity=0.05;fillColor=#dae8fc;strokeColor=#6c8ebf;fillStyle=solid;direction=west;gradientDirection=north;shadow=0;size=20;pointerEvents=1;gradientColor=#7ea6e0;fontStyle=1" vertex="1" parent="CLmMiWkLYGzM4xCE3e-k-42">
          <mxGeometry x="300" y="290" width="140" height="160" as="geometry" />
        </mxCell>
        <mxCell id="CLmMiWkLYGzM4xCE3e-k-31" value="로그아웃 됨" style="shape=note;whiteSpace=wrap;html=1;backgroundOutline=1;darkOpacity=0.05;fillColor=#ffcd28;strokeColor=#d79b00;fillStyle=solid;direction=west;gradientDirection=north;shadow=0;size=20;pointerEvents=1;gradientColor=#ffa500;fontStyle=1" vertex="1" parent="CLmMiWkLYGzM4xCE3e-k-42">
          <mxGeometry x="440" y="290" width="140" height="160" as="geometry" />
        </mxCell>
        <mxCell id="CLmMiWkLYGzM4xCE3e-k-32" value="회원" style="shape=note;whiteSpace=wrap;html=1;backgroundOutline=1;darkOpacity=0.05;fillColor=#d5e8d4;strokeColor=#82b366;fillStyle=solid;direction=west;gradientDirection=north;shadow=0;size=20;pointerEvents=1;gradientColor=#97d077;fontStyle=1" vertex="1" parent="CLmMiWkLYGzM4xCE3e-k-42">
          <mxGeometry x="20" y="650" width="140" height="40" as="geometry" />
        </mxCell>
        <mxCell id="CLmMiWkLYGzM4xCE3e-k-33" value="유저 정보 변경" style="shape=note;whiteSpace=wrap;html=1;backgroundOutline=1;darkOpacity=0.05;fillColor=#dae8fc;strokeColor=#6c8ebf;fillStyle=solid;direction=west;gradientDirection=north;shadow=0;size=20;pointerEvents=1;gradientColor=#7ea6e0;fontStyle=1" vertex="1" parent="CLmMiWkLYGzM4xCE3e-k-42">
          <mxGeometry x="160" y="530" width="140" height="160" as="geometry" />
        </mxCell>
        <mxCell id="CLmMiWkLYGzM4xCE3e-k-34" value="토큰 검증" style="shape=note;whiteSpace=wrap;html=1;backgroundOutline=1;darkOpacity=0.05;fillColor=#dae8fc;strokeColor=#6c8ebf;fillStyle=solid;direction=west;gradientDirection=north;shadow=0;size=20;pointerEvents=1;gradientColor=#7ea6e0;fontStyle=1" vertex="1" parent="CLmMiWkLYGzM4xCE3e-k-42">
          <mxGeometry x="300" y="530" width="140" height="160" as="geometry" />
        </mxCell>
        <mxCell id="CLmMiWkLYGzM4xCE3e-k-35" value="유저 정보 변경 됨" style="shape=note;whiteSpace=wrap;html=1;backgroundOutline=1;darkOpacity=0.05;fillColor=#ffcd28;strokeColor=#d79b00;fillStyle=solid;direction=west;gradientDirection=north;shadow=0;size=20;pointerEvents=1;gradientColor=#ffa500;fontStyle=1" vertex="1" parent="CLmMiWkLYGzM4xCE3e-k-42">
          <mxGeometry x="440" y="530" width="140" height="160" as="geometry" />
        </mxCell>
        <mxCell id="CLmMiWkLYGzM4xCE3e-k-39" value="유저" style="shape=note;whiteSpace=wrap;html=1;backgroundOutline=1;darkOpacity=0.05;fillColor=#fff2cc;strokeColor=#d6b656;fillStyle=solid;direction=west;gradientDirection=north;shadow=0;size=20;pointerEvents=1;gradientColor=#ffd966;fontStyle=1" vertex="1" parent="CLmMiWkLYGzM4xCE3e-k-42">
          <mxGeometry x="580" y="530" width="140" height="160" as="geometry" />
        </mxCell>
        <mxCell id="CLmMiWkLYGzM4xCE3e-k-43" value="&lt;span style=&quot;font-size: 30px;&quot;&gt;회원 컨텍스트&lt;/span&gt;" style="text;html=1;align=center;verticalAlign=middle;resizable=0;points=[];autosize=1;strokeColor=none;fillColor=none;fontStyle=1;fontSize=30;" vertex="1" parent="1">
          <mxGeometry x="-4" y="590" width="210" height="50" as="geometry" />
        </mxCell>
        <mxCell id="CLmMiWkLYGzM4xCE3e-k-45" value="&lt;span style=&quot;font-size: 30px;&quot;&gt;위성 데이터 컨텍스트&lt;/span&gt;" style="text;html=1;align=center;verticalAlign=middle;resizable=0;points=[];autosize=1;strokeColor=none;fillColor=none;fontStyle=1;fontSize=30;" vertex="1" parent="1">
          <mxGeometry x="1360" y="590" width="310" height="50" as="geometry" />
        </mxCell>
        <mxCell id="CLmMiWkLYGzM4xCE3e-k-46" value="작업자" style="shape=note;whiteSpace=wrap;html=1;backgroundOutline=1;darkOpacity=0.05;fillColor=#d5e8d4;strokeColor=#82b366;fillStyle=solid;direction=west;gradientDirection=north;shadow=0;size=20;pointerEvents=1;gradientColor=#97d077;fontStyle=1" vertex="1" parent="1">
          <mxGeometry x="1423" y="1040" width="140" height="40" as="geometry" />
        </mxCell>
        <mxCell id="CLmMiWkLYGzM4xCE3e-k-52" style="edgeStyle=none;curved=1;rounded=0;orthogonalLoop=1;jettySize=auto;html=1;endArrow=open;startSize=14;endSize=14;sourcePerimeterSpacing=8;targetPerimeterSpacing=8;fontStyle=1" edge="1" parent="1" source="CLmMiWkLYGzM4xCE3e-k-47" target="CLmMiWkLYGzM4xCE3e-k-49">
          <mxGeometry relative="1" as="geometry" />
        </mxCell>
        <mxCell id="CLmMiWkLYGzM4xCE3e-k-47" value="데이터 검색" style="shape=note;whiteSpace=wrap;html=1;backgroundOutline=1;darkOpacity=0.05;fillColor=#dae8fc;strokeColor=#6c8ebf;fillStyle=solid;direction=west;gradientDirection=north;shadow=0;size=20;pointerEvents=1;gradientColor=#7ea6e0;fontStyle=1" vertex="1" parent="1">
          <mxGeometry x="1563" y="930" width="140" height="160" as="geometry" />
        </mxCell>
        <mxCell id="CLmMiWkLYGzM4xCE3e-k-48" value="검색 옵션을 만족 하고&lt;br&gt;있는지 체크" style="shape=note;whiteSpace=wrap;html=1;backgroundOutline=1;darkOpacity=0.05;fillColor=#e6d0de;strokeColor=#996185;fillStyle=solid;direction=west;gradientDirection=north;shadow=0;size=20;pointerEvents=1;gradientColor=#d5739d;fontStyle=1" vertex="1" parent="1">
          <mxGeometry x="1563" y="740" width="140" height="160" as="geometry" />
        </mxCell>
        <mxCell id="CLmMiWkLYGzM4xCE3e-k-53" style="edgeStyle=none;curved=1;rounded=0;orthogonalLoop=1;jettySize=auto;html=1;endArrow=open;startSize=14;endSize=14;sourcePerimeterSpacing=8;targetPerimeterSpacing=8;fontStyle=1" edge="1" parent="1" source="CLmMiWkLYGzM4xCE3e-k-49" target="CLmMiWkLYGzM4xCE3e-k-50">
          <mxGeometry relative="1" as="geometry" />
        </mxCell>
        <mxCell id="CLmMiWkLYGzM4xCE3e-k-49" value="위성 영상 제공 API" style="shape=note;whiteSpace=wrap;html=1;backgroundOutline=1;darkOpacity=0.05;fillColor=#f8cecc;strokeColor=#b85450;fillStyle=solid;direction=west;gradientDirection=north;shadow=0;size=20;pointerEvents=1;gradientColor=#ea6b66;fontStyle=1" vertex="1" parent="1">
          <mxGeometry x="1783" y="840" width="140" height="160" as="geometry" />
        </mxCell>
        <mxCell id="CLmMiWkLYGzM4xCE3e-k-50" value="데이터 검색 됨" style="shape=note;whiteSpace=wrap;html=1;backgroundOutline=1;darkOpacity=0.05;fillColor=#ffcd28;strokeColor=#d79b00;fillStyle=solid;direction=west;gradientDirection=north;shadow=0;size=20;pointerEvents=1;gradientColor=#ffa500;fontStyle=1" vertex="1" parent="1">
          <mxGeometry x="2003" y="930" width="140" height="160" as="geometry" />
        </mxCell>
        <mxCell id="CLmMiWkLYGzM4xCE3e-k-51" value="위성 영상 데이터" style="shape=note;whiteSpace=wrap;html=1;backgroundOutline=1;darkOpacity=0.05;fillColor=#fff2cc;strokeColor=#d6b656;fillStyle=solid;direction=west;gradientDirection=north;shadow=0;size=20;pointerEvents=1;gradientColor=#ffd966;fontStyle=1" vertex="1" parent="1">
          <mxGeometry x="2143" y="930" width="140" height="160" as="geometry" />
        </mxCell>
        <mxCell id="CLmMiWkLYGzM4xCE3e-k-54" value="작업자" style="shape=note;whiteSpace=wrap;html=1;backgroundOutline=1;darkOpacity=0.05;fillColor=#d5e8d4;strokeColor=#82b366;fillStyle=solid;direction=west;gradientDirection=north;shadow=0;size=20;pointerEvents=1;gradientColor=#97d077;fontStyle=1" vertex="1" parent="1">
          <mxGeometry x="1423" y="1300" width="140" height="40" as="geometry" />
        </mxCell>
        <mxCell id="CLmMiWkLYGzM4xCE3e-k-55" value="영상 구독 요청" style="shape=note;whiteSpace=wrap;html=1;backgroundOutline=1;darkOpacity=0.05;fillColor=#dae8fc;strokeColor=#6c8ebf;fillStyle=solid;direction=west;gradientDirection=north;shadow=0;size=20;pointerEvents=1;gradientColor=#7ea6e0;fontStyle=1" vertex="1" parent="1">
          <mxGeometry x="1563" y="1180" width="140" height="160" as="geometry" />
        </mxCell>
        <mxCell id="CLmMiWkLYGzM4xCE3e-k-56" value="배치 목록에 추가 됨" style="shape=note;whiteSpace=wrap;html=1;backgroundOutline=1;darkOpacity=0.05;fillColor=#ffcd28;strokeColor=#d79b00;fillStyle=solid;direction=west;gradientDirection=north;shadow=0;size=20;pointerEvents=1;gradientColor=#ffa500;fontStyle=1" vertex="1" parent="1">
          <mxGeometry x="1703" y="1180" width="140" height="160" as="geometry" />
        </mxCell>
        <mxCell id="CLmMiWkLYGzM4xCE3e-k-57" value="배치 항목" style="shape=note;whiteSpace=wrap;html=1;backgroundOutline=1;darkOpacity=0.05;fillColor=#fff2cc;strokeColor=#d6b656;fillStyle=solid;direction=west;gradientDirection=north;shadow=0;size=20;pointerEvents=1;gradientColor=#ffd966;fontStyle=1" vertex="1" parent="1">
          <mxGeometry x="1843" y="1180" width="140" height="160" as="geometry" />
        </mxCell>
        <mxCell id="CLmMiWkLYGzM4xCE3e-k-58" value="작업자" style="shape=note;whiteSpace=wrap;html=1;backgroundOutline=1;darkOpacity=0.05;fillColor=#d5e8d4;strokeColor=#82b366;fillStyle=solid;direction=west;gradientDirection=north;shadow=0;size=20;pointerEvents=1;gradientColor=#97d077;fontStyle=1" vertex="1" parent="1">
          <mxGeometry x="1423" y="1560" width="140" height="40" as="geometry" />
        </mxCell>
        <mxCell id="CLmMiWkLYGzM4xCE3e-k-59" value="유저 데이터 요청" style="shape=note;whiteSpace=wrap;html=1;backgroundOutline=1;darkOpacity=0.05;fillColor=#dae8fc;strokeColor=#6c8ebf;fillStyle=solid;direction=west;gradientDirection=north;shadow=0;size=20;pointerEvents=1;gradientColor=#7ea6e0;fontStyle=1" vertex="1" parent="1">
          <mxGeometry x="1563" y="1440" width="140" height="160" as="geometry" />
        </mxCell>
        <mxCell id="CLmMiWkLYGzM4xCE3e-k-60" value="유저 작업 내역 요청 됨" style="shape=note;whiteSpace=wrap;html=1;backgroundOutline=1;darkOpacity=0.05;fillColor=#ffcd28;strokeColor=#d79b00;fillStyle=solid;direction=west;gradientDirection=north;shadow=0;size=20;pointerEvents=1;gradientColor=#ffa500;fontStyle=1" vertex="1" parent="1">
          <mxGeometry x="1703" y="1440" width="140" height="160" as="geometry" />
        </mxCell>
        <mxCell id="CLmMiWkLYGzM4xCE3e-k-61" value="유저 데이터" style="shape=note;whiteSpace=wrap;html=1;backgroundOutline=1;darkOpacity=0.05;fillColor=#fff2cc;strokeColor=#d6b656;fillStyle=solid;direction=west;gradientDirection=north;shadow=0;size=20;pointerEvents=1;gradientColor=#ffd966;fontStyle=1" vertex="1" parent="1">
          <mxGeometry x="1983" y="1440" width="140" height="160" as="geometry" />
        </mxCell>
        <mxCell id="CLmMiWkLYGzM4xCE3e-k-62" value="유저 데이터 검색 됨" style="shape=note;whiteSpace=wrap;html=1;backgroundOutline=1;darkOpacity=0.05;fillColor=#ffcd28;strokeColor=#d79b00;fillStyle=solid;direction=west;gradientDirection=north;shadow=0;size=20;pointerEvents=1;gradientColor=#ffa500;fontStyle=1" vertex="1" parent="1">
          <mxGeometry x="1843" y="1440" width="140" height="160" as="geometry" />
        </mxCell>
        <mxCell id="CLmMiWkLYGzM4xCE3e-k-63" value="작업자" style="shape=note;whiteSpace=wrap;html=1;backgroundOutline=1;darkOpacity=0.05;fillColor=#d5e8d4;strokeColor=#82b366;fillStyle=solid;direction=west;gradientDirection=north;shadow=0;size=20;pointerEvents=1;gradientColor=#97d077;fontStyle=1" vertex="1" parent="1">
          <mxGeometry x="2470" y="1040" width="140" height="40" as="geometry" />
        </mxCell>
        <mxCell id="CLmMiWkLYGzM4xCE3e-k-70" style="edgeStyle=none;curved=1;rounded=0;orthogonalLoop=1;jettySize=auto;html=1;endArrow=open;startSize=14;endSize=14;sourcePerimeterSpacing=8;targetPerimeterSpacing=8;" edge="1" parent="1" source="CLmMiWkLYGzM4xCE3e-k-64" target="CLmMiWkLYGzM4xCE3e-k-65">
          <mxGeometry relative="1" as="geometry" />
        </mxCell>
        <mxCell id="CLmMiWkLYGzM4xCE3e-k-64" value="알고리즘 요청" style="shape=note;whiteSpace=wrap;html=1;backgroundOutline=1;darkOpacity=0.05;fillColor=#dae8fc;strokeColor=#6c8ebf;fillStyle=solid;direction=west;gradientDirection=north;shadow=0;size=20;pointerEvents=1;gradientColor=#7ea6e0;fontStyle=1" vertex="1" parent="1">
          <mxGeometry x="2610" y="920" width="140" height="160" as="geometry" />
        </mxCell>
        <mxCell id="CLmMiWkLYGzM4xCE3e-k-72" style="edgeStyle=none;curved=1;rounded=0;orthogonalLoop=1;jettySize=auto;html=1;endArrow=open;startSize=14;endSize=14;sourcePerimeterSpacing=8;targetPerimeterSpacing=8;" edge="1" parent="1" source="CLmMiWkLYGzM4xCE3e-k-65" target="CLmMiWkLYGzM4xCE3e-k-71">
          <mxGeometry relative="1" as="geometry" />
        </mxCell>
        <mxCell id="CLmMiWkLYGzM4xCE3e-k-65" value="작업 요청 됨" style="shape=note;whiteSpace=wrap;html=1;backgroundOutline=1;darkOpacity=0.05;fillColor=#ffcd28;strokeColor=#d79b00;fillStyle=solid;direction=west;gradientDirection=north;shadow=0;size=20;pointerEvents=1;gradientColor=#ffa500;fontStyle=1" vertex="1" parent="1">
          <mxGeometry x="2840" y="1040" width="140" height="160" as="geometry" />
        </mxCell>
        <mxCell id="CLmMiWkLYGzM4xCE3e-k-67" value="작업자" style="shape=note;whiteSpace=wrap;html=1;backgroundOutline=1;darkOpacity=0.05;fillColor=#d5e8d4;strokeColor=#82b366;fillStyle=solid;direction=west;gradientDirection=north;shadow=0;size=20;pointerEvents=1;gradientColor=#97d077;fontStyle=1" vertex="1" parent="1">
          <mxGeometry x="2470" y="1300" width="140" height="40" as="geometry" />
        </mxCell>
        <mxCell id="CLmMiWkLYGzM4xCE3e-k-69" style="edgeStyle=none;curved=1;rounded=0;orthogonalLoop=1;jettySize=auto;html=1;endArrow=open;startSize=14;endSize=14;sourcePerimeterSpacing=8;targetPerimeterSpacing=8;" edge="1" parent="1" source="CLmMiWkLYGzM4xCE3e-k-68" target="CLmMiWkLYGzM4xCE3e-k-65">
          <mxGeometry relative="1" as="geometry" />
        </mxCell>
        <mxCell id="CLmMiWkLYGzM4xCE3e-k-68" value="AI 요청" style="shape=note;whiteSpace=wrap;html=1;backgroundOutline=1;darkOpacity=0.05;fillColor=#dae8fc;strokeColor=#6c8ebf;fillStyle=solid;direction=west;gradientDirection=north;shadow=0;size=20;pointerEvents=1;gradientColor=#7ea6e0;fontStyle=1" vertex="1" parent="1">
          <mxGeometry x="2610" y="1180" width="140" height="160" as="geometry" />
        </mxCell>
        <mxCell id="CLmMiWkLYGzM4xCE3e-k-71" value="이미지 등록" style="shape=note;whiteSpace=wrap;html=1;backgroundOutline=1;darkOpacity=0.05;fillColor=#dae8fc;strokeColor=#6c8ebf;fillStyle=solid;direction=west;gradientDirection=north;shadow=0;size=20;pointerEvents=1;gradientColor=#7ea6e0;fontStyle=1" vertex="1" parent="1">
          <mxGeometry x="3070" y="1040" width="140" height="160" as="geometry" />
        </mxCell>
        <mxCell id="CLmMiWkLYGzM4xCE3e-k-84" style="edgeStyle=none;curved=1;rounded=0;orthogonalLoop=1;jettySize=auto;html=1;endArrow=open;startSize=14;endSize=14;sourcePerimeterSpacing=8;targetPerimeterSpacing=8;exitX=0.5;exitY=0;exitDx=0;exitDy=0;exitPerimeter=0;" edge="1" parent="1" source="CLmMiWkLYGzM4xCE3e-k-73" target="CLmMiWkLYGzM4xCE3e-k-75">
          <mxGeometry relative="1" as="geometry" />
        </mxCell>
        <mxCell id="CLmMiWkLYGzM4xCE3e-k-73" value="이미지 등록 요청 됨" style="shape=note;whiteSpace=wrap;html=1;backgroundOutline=1;darkOpacity=0.05;fillColor=#ffcd28;strokeColor=#d79b00;fillStyle=solid;direction=west;gradientDirection=north;shadow=0;size=20;pointerEvents=1;gradientColor=#ffa500;fontStyle=1" vertex="1" parent="1">
          <mxGeometry x="3210" y="1040" width="140" height="160" as="geometry" />
        </mxCell>
        <mxCell id="CLmMiWkLYGzM4xCE3e-k-74" value="작업자" style="shape=note;whiteSpace=wrap;html=1;backgroundOutline=1;darkOpacity=0.05;fillColor=#d5e8d4;strokeColor=#82b366;fillStyle=solid;direction=west;gradientDirection=north;shadow=0;size=20;pointerEvents=1;gradientColor=#97d077;fontStyle=1" vertex="1" parent="1">
          <mxGeometry x="2470" y="1550" width="140" height="40" as="geometry" />
        </mxCell>
        <mxCell id="CLmMiWkLYGzM4xCE3e-k-78" style="edgeStyle=none;curved=1;rounded=0;orthogonalLoop=1;jettySize=auto;html=1;endArrow=open;startSize=14;endSize=14;sourcePerimeterSpacing=8;targetPerimeterSpacing=8;" edge="1" parent="1" source="CLmMiWkLYGzM4xCE3e-k-75" target="CLmMiWkLYGzM4xCE3e-k-76">
          <mxGeometry relative="1" as="geometry" />
        </mxCell>
        <mxCell id="CLmMiWkLYGzM4xCE3e-k-75" value="위성 영상 업로드" style="shape=note;whiteSpace=wrap;html=1;backgroundOutline=1;darkOpacity=0.05;fillColor=#dae8fc;strokeColor=#6c8ebf;fillStyle=solid;direction=west;gradientDirection=north;shadow=0;size=20;pointerEvents=1;gradientColor=#7ea6e0;fontStyle=1" vertex="1" parent="1">
          <mxGeometry x="2610" y="1430" width="140" height="160" as="geometry" />
        </mxCell>
        <mxCell id="CLmMiWkLYGzM4xCE3e-k-79" style="edgeStyle=none;curved=1;rounded=0;orthogonalLoop=1;jettySize=auto;html=1;endArrow=open;startSize=14;endSize=14;sourcePerimeterSpacing=8;targetPerimeterSpacing=8;" edge="1" parent="1" source="CLmMiWkLYGzM4xCE3e-k-76" target="CLmMiWkLYGzM4xCE3e-k-77">
          <mxGeometry relative="1" as="geometry" />
        </mxCell>
        <mxCell id="CLmMiWkLYGzM4xCE3e-k-76" value="GeoServer" style="shape=note;whiteSpace=wrap;html=1;backgroundOutline=1;darkOpacity=0.05;fillColor=#f8cecc;strokeColor=#b85450;fillStyle=solid;direction=west;gradientDirection=north;shadow=0;size=20;pointerEvents=1;gradientColor=#ea6b66;fontStyle=1" vertex="1" parent="1">
          <mxGeometry x="2840" y="1520" width="140" height="160" as="geometry" />
        </mxCell>
        <mxCell id="CLmMiWkLYGzM4xCE3e-k-81" style="edgeStyle=none;curved=1;rounded=0;orthogonalLoop=1;jettySize=auto;html=1;endArrow=open;startSize=14;endSize=14;sourcePerimeterSpacing=8;targetPerimeterSpacing=8;" edge="1" parent="1" source="CLmMiWkLYGzM4xCE3e-k-77" target="CLmMiWkLYGzM4xCE3e-k-80">
          <mxGeometry relative="1" as="geometry" />
        </mxCell>
        <mxCell id="CLmMiWkLYGzM4xCE3e-k-77" value="이미지 처리" style="shape=note;whiteSpace=wrap;html=1;backgroundOutline=1;darkOpacity=0.05;fillColor=#dae8fc;strokeColor=#6c8ebf;fillStyle=solid;direction=west;gradientDirection=north;shadow=0;size=20;pointerEvents=1;gradientColor=#7ea6e0;fontStyle=1" vertex="1" parent="1">
          <mxGeometry x="3070" y="1430" width="140" height="160" as="geometry" />
        </mxCell>
        <mxCell id="CLmMiWkLYGzM4xCE3e-k-83" style="edgeStyle=none;curved=1;rounded=0;orthogonalLoop=1;jettySize=auto;html=1;endArrow=open;startSize=14;endSize=14;sourcePerimeterSpacing=8;targetPerimeterSpacing=8;" edge="1" parent="1" source="CLmMiWkLYGzM4xCE3e-k-80" target="CLmMiWkLYGzM4xCE3e-k-82">
          <mxGeometry relative="1" as="geometry" />
        </mxCell>
        <mxCell id="CLmMiWkLYGzM4xCE3e-k-80" value="ImageMagic" style="shape=note;whiteSpace=wrap;html=1;backgroundOutline=1;darkOpacity=0.05;fillColor=#f8cecc;strokeColor=#b85450;fillStyle=solid;direction=west;gradientDirection=north;shadow=0;size=20;pointerEvents=1;gradientColor=#ea6b66;fontStyle=1" vertex="1" parent="1">
          <mxGeometry x="3300" y="1520" width="140" height="160" as="geometry" />
        </mxCell>
        <mxCell id="CLmMiWkLYGzM4xCE3e-k-82" value="이미지 등록 됨" style="shape=note;whiteSpace=wrap;html=1;backgroundOutline=1;darkOpacity=0.05;fillColor=#ffcd28;strokeColor=#d79b00;fillStyle=solid;direction=west;gradientDirection=north;shadow=0;size=20;pointerEvents=1;gradientColor=#ffa500;fontStyle=1" vertex="1" parent="1">
          <mxGeometry x="3530" y="1430" width="140" height="160" as="geometry" />
        </mxCell>
      </root>
    </mxGraphModel>
  </diagram>
</mxfile>
